<?xml version="1.0" encoding="UTF-8"?>
<svg xmlns="http://www.w3.org/2000/svg" xmlns:xlink="http://www.w3.org/1999/xlink" viewBox="0 0 1275.65 525.91">
  <defs>
    <radialGradient id="radial-gradient" cx="-2670.4" cy="1142.02" fx="-2605.48" fy="847.29" r="1066.21" gradientTransform="translate(802.58 125.78) rotate(.15) scale(.19 .11)" gradientUnits="userSpaceOnUse">
      <stop offset=".06" stop-color="#b9babe"/>
      <stop offset=".74" stop-color="#97999c"/>
      <stop offset=".83" stop-color="#95979a"/>
      <stop offset=".88" stop-color="#8d8f91"/>
      <stop offset=".93" stop-color="#808283"/>
      <stop offset=".97" stop-color="#6d6e70"/>
      <stop offset="1" stop-color="#555657"/>
    </radialGradient>
    <radialGradient id="radial-gradient-2" cx="-2535.26" cy="517.53" fx="-2535.26" fy="517.53" r="26.91" gradientTransform="translate(802.66 93.3) rotate(.15) scale(.19)" gradientUnits="userSpaceOnUse">
      <stop offset=".03" stop-color="#6da5c1"/>
      <stop offset=".28" stop-color="#6da5c1"/>
      <stop offset=".36" stop-color="#73adcb"/>
      <stop offset=".49" stop-color="#7dbbda"/>
      <stop offset=".66" stop-color="#80c0e1"/>
      <stop offset=".96" stop-color="#81c3e4"/>
    </radialGradient>
    <radialGradient id="radial-gradient-3" cx="-1902.73" cy="-441.42" fx="-1902.73" fy="-441.42" r="377.39" gradientTransform="translate(727.26 140.46) rotate(-43.37) scale(.19 .37) skewX(.75)" gradientUnits="userSpaceOnUse">
      <stop offset="0" stop-color="#cbb482"/>
      <stop offset=".12" stop-color="#c6ad79"/>
      <stop offset=".31" stop-color="#bb9d5f"/>
      <stop offset=".55" stop-color="#a98637"/>
      <stop offset=".83" stop-color="#8f6828"/>
      <stop offset=".83" stop-color="#8f6828"/>
    </radialGradient>
    <radialGradient id="radial-gradient-4" cx="-3524.6" cy="805.65" fx="-3524.6" fy="805.65" r="101.69" gradientTransform="translate(802.66 93.3) rotate(.15) scale(.19)" xlink:href="#radial-gradient-3"/>
    <radialGradient id="radial-gradient-5" cx="-3491.49" cy="581.62" fx="-3491.49" fy="581.62" r="83.98" gradientTransform="translate(802.66 93.3) rotate(.15) scale(.19)" xlink:href="#radial-gradient-3"/>
    <radialGradient id="radial-gradient-6" cx="-1691.86" cy="226.06" fx="-1691.86" fy="226.06" r="159.1" gradientTransform="translate(802.66 93.3) rotate(.15) scale(.19)" gradientUnits="userSpaceOnUse">
      <stop offset=".38" stop-color="#7eaa72"/>
      <stop offset=".77" stop-color="#8bbe7f"/>
      <stop offset=".93" stop-color="#7ba870"/>
    </radialGradient>
    <radialGradient id="radial-gradient-7" cx="-4422.1" cy="1499.84" fx="-4422.1" fy="1499.84" r="160.34" gradientTransform="translate(694.15 291.28) rotate(.15) scale(.19 -.19)" xlink:href="#radial-gradient-6"/>
    <radialGradient id="radial-gradient-8" cx="-3930.19" cy="2479.19" fx="-3930.19" fy="2479.19" r="214.66" gradientTransform="translate(694.15 291.28) rotate(.15) scale(.19 -.19)" xlink:href="#radial-gradient-6"/>
    <radialGradient id="radial-gradient-9" cx="-1984.58" cy="401.43" fx="-1984.58" fy="243.53" r="159.77" gradientTransform="translate(802.66 93.3) rotate(.15) scale(.19)" gradientUnits="userSpaceOnUse">
      <stop offset="0" stop-color="#cdb859"/>
      <stop offset=".11" stop-color="#c9b457"/>
      <stop offset=".17" stop-color="#c4b155"/>
      <stop offset=".21" stop-color="#d1bd5a"/>
      <stop offset=".28" stop-color="#e5cf64"/>
      <stop offset=".36" stop-color="#f3dc6b"/>
      <stop offset=".46" stop-color="#fbe36d"/>
      <stop offset=".63" stop-color="#fde56f"/>
      <stop offset=".86" stop-color="#f3dc6b"/>
      <stop offset="1" stop-color="#ead466"/>
      <stop offset="1" stop-color="#ecd667"/>
    </radialGradient>
    <radialGradient id="radial-gradient-10" cx="-2161.32" cy="1012.92" fx="-2161.32" fy="1012.92" r="289.15" gradientTransform="translate(802.66 93.3) rotate(.15) scale(.19)" gradientUnits="userSpaceOnUse">
      <stop offset=".06" stop-color="#b9babe"/>
      <stop offset=".72" stop-color="#97999c"/>
      <stop offset=".93" stop-color="#848689"/>
    </radialGradient>
    <radialGradient id="radial-gradient-11" cx="-1479.13" cy="740.48" fx="-1479.13" fy="905.33" r="166.72" gradientTransform="translate(802.66 93.3) rotate(.15) scale(.19)" gradientUnits="userSpaceOnUse">
      <stop offset=".13" stop-color="#1164a1"/>
      <stop offset=".47" stop-color="#084c7d"/>
      <stop offset=".67" stop-color="#0f3f65"/>
      <stop offset=".99" stop-color="#0e3b5e"/>
    </radialGradient>
    <radialGradient id="radial-gradient-12" cx="-4886.76" cy="2560.4" fx="-4886.76" fy="2560.4" r="229.4" gradientTransform="translate(694.15 291.28) rotate(.15) scale(.19 -.19)" xlink:href="#radial-gradient-10"/>
    <radialGradient id="radial-gradient-13" cx="-5297.85" cy="2611.71" fx="-5297.85" fy="2611.71" r="198.62" gradientTransform="translate(694.15 291.28) rotate(.15) scale(.19 -.19)" xlink:href="#radial-gradient-10"/>
    <radialGradient id="radial-gradient-14" cx="-5718.65" cy="2453.25" fx="-5718.65" fy="2453.25" r="158.88" gradientTransform="translate(694.15 291.28) rotate(.15) scale(.19 -.19)" xlink:href="#radial-gradient-10"/>
    <radialGradient id="radial-gradient-15" cx="-2235.1" cy="292.92" fx="-2235.1" fy="334.36" r="91.62" gradientTransform="translate(802.66 93.3) rotate(.15) scale(.19)" gradientUnits="userSpaceOnUse">
      <stop offset=".07" stop-color="#cdb859"/>
      <stop offset=".15" stop-color="#c9b457"/>
      <stop offset=".19" stop-color="#c4b155"/>
      <stop offset=".21" stop-color="#d1bd5a"/>
      <stop offset=".25" stop-color="#e5cf64"/>
      <stop offset=".29" stop-color="#f3dc6b"/>
      <stop offset=".34" stop-color="#fbe36d"/>
      <stop offset=".43" stop-color="#fde56f"/>
      <stop offset=".78" stop-color="#f3dc6b"/>
      <stop offset="1" stop-color="#ead466"/>
      <stop offset="1" stop-color="#ecd667"/>
    </radialGradient>
    <radialGradient id="radial-gradient-16" cx="-5878.05" cy="2245.01" fx="-5878.05" fy="2245.01" r="117.01" gradientTransform="translate(694.15 291.28) rotate(.15) scale(.19 -.19)" xlink:href="#radial-gradient-10"/>
    <radialGradient id="radial-gradient-17" cx="-1728.93" cy="439.09" fx="-1728.93" fy="439.09" r="54.78" gradientTransform="translate(802.66 93.3) rotate(.15) scale(.19)" gradientUnits="userSpaceOnUse">
      <stop offset=".06" stop-color="#7a749f"/>
      <stop offset=".18" stop-color="#7b77a3"/>
      <stop offset=".19" stop-color="#7c78a4"/>
      <stop offset=".27" stop-color="#827eac"/>
      <stop offset=".43" stop-color="#8580ae"/>
      <stop offset=".79" stop-color="#8c86b7"/>
      <stop offset=".99" stop-color="#938dc0"/>
      <stop offset=".99" stop-color="#78749e"/>
    </radialGradient>
    <radialGradient id="radial-gradient-18" cx="-2444.12" cy="603" fx="-2444.12" fy="603" r="54.61" gradientTransform="translate(802.66 93.3) rotate(.15) scale(.19)" gradientUnits="userSpaceOnUse">
      <stop offset=".03" stop-color="#81c4e5"/>
      <stop offset=".25" stop-color="#81c6e8"/>
      <stop offset=".28" stop-color="#83c8e9"/>
      <stop offset=".4" stop-color="#89cef1"/>
      <stop offset=".6" stop-color="#8fd4f5"/>
      <stop offset=".96" stop-color="#93d6f6"/>
    </radialGradient>
    <radialGradient id="radial-gradient-19" cx="-4697.52" cy="1885.78" fx="-4697.52" fy="1885.78" r="55.06" gradientTransform="translate(694.15 291.28) rotate(.15) scale(.19 -.19)" xlink:href="#radial-gradient-2"/>
    <radialGradient id="radial-gradient-20" cx="-4907.68" cy="1855.38" fx="-4907.68" fy="1855.38" r="54.38" gradientTransform="translate(694.15 291.28) rotate(.15) scale(.19 -.19)" xlink:href="#radial-gradient-18"/>
    <radialGradient id="radial-gradient-21" cx="-4797.95" cy="1807.16" fx="-4797.95" fy="1807.16" r="54.85" gradientTransform="translate(694.15 291.28) rotate(.15) scale(.19 -.19)" xlink:href="#radial-gradient-2"/>
    <radialGradient id="radial-gradient-22" cx="-4911.83" cy="1972.34" fx="-4911.83" fy="1972.34" r="55.62" gradientTransform="translate(694.15 291.28) rotate(.15) scale(.19 -.19)" xlink:href="#radial-gradient-18"/>
    <radialGradient id="radial-gradient-23" cx="-4800.98" cy="1915.19" fx="-4800.98" fy="1915.19" r="56.13" gradientTransform="translate(694.15 291.28) rotate(.15) scale(.19 -.19)" xlink:href="#radial-gradient-2"/>
    <radialGradient id="radial-gradient-24" cx="-4023.12" cy="1885.48" fx="-4023.12" fy="1885.48" r="54.33" gradientTransform="translate(694.15 291.28) rotate(.15) scale(.19 -.19)" xlink:href="#radial-gradient-17"/>
    <radialGradient id="radial-gradient-25" cx="-3907.62" cy="1909.76" fx="-3907.62" fy="1909.76" r="54.07" gradientTransform="translate(694.15 291.28) rotate(.15) scale(.19 -.19)" xlink:href="#radial-gradient-17"/>
    <radialGradient id="radial-gradient-26" cx="-3970.04" cy="1788.24" fx="-3970.04" fy="1788.24" r="55.21" gradientTransform="translate(694.15 291.28) rotate(.15) scale(.19 -.19)" xlink:href="#radial-gradient-17"/>
    <radialGradient id="radial-gradient-27" cx="-4791.39" cy="1825.03" fx="-4791.39" fy="1825.03" r="53.86" gradientTransform="translate(694.15 291.28) rotate(.15) scale(.19 -.19)" xlink:href="#radial-gradient-18"/>
    <radialGradient id="radial-gradient-28" cx="-4685.69" cy="1776.29" fx="-4685.69" fy="1776.29" r="54.4" gradientTransform="translate(694.15 291.28) rotate(.15) scale(.19 -.19)" xlink:href="#radial-gradient-2"/>
    <radialGradient id="radial-gradient-29" cx="-4921.27" cy="2082.45" fx="-4921.27" fy="2082.45" r="51.79" gradientTransform="translate(694.15 291.28) rotate(.15) scale(.19 -.19)" xlink:href="#radial-gradient-18"/>
    <radialGradient id="radial-gradient-30" cx="-4809.51" cy="2012.7" fx="-4809.51" fy="2012.7" r="52.29" gradientTransform="translate(694.15 291.28) rotate(.15) scale(.19 -.19)" xlink:href="#radial-gradient-2"/>
    <radialGradient id="radial-gradient-31" cx="-1779.93" cy="534.32" fx="-1779.93" fy="534.32" r="63.21" gradientTransform="translate(802.66 93.3) rotate(.15) scale(.19)" gradientUnits="userSpaceOnUse">
      <stop offset="0" stop-color="#fde470"/>
      <stop offset="0" stop-color="#fde470"/>
      <stop offset=".63" stop-color="#fde56f"/>
      <stop offset=".99" stop-color="#fde571"/>
      <stop offset="1" stop-color="#c4b155"/>
      <stop offset="1" stop-color="#d2bd5a"/>
      <stop offset="1" stop-color="#deca62"/>
      <stop offset="1" stop-color="#e7d165"/>
      <stop offset="1" stop-color="#ead466"/>
    </radialGradient>
    <radialGradient id="radial-gradient-32" cx="-3999.88" cy="2000.62" fx="-3999.88" fy="2000.62" r="53.19" gradientTransform="translate(694.15 291.28) rotate(.15) scale(.19 -.19)" xlink:href="#radial-gradient-17"/>
    <radialGradient id="radial-gradient-33" cx="-3796.58" cy="1868.56" fx="-3796.58" fy="1868.56" r="49.87" gradientTransform="translate(694.15 291.28) rotate(.15) scale(.19 -.19)" xlink:href="#radial-gradient-17"/>
    <radialGradient id="radial-gradient-34" cx="-5887.81" cy="2021.22" fx="-5887.81" fy="2021.22" r="83.02" gradientTransform="translate(694.15 291.28) rotate(.15) scale(.19 -.19)" xlink:href="#radial-gradient-10"/>
    <radialGradient id="radial-gradient-35" cx="-4813.5" cy="2048.15" fx="-4813.5" fy="2048.15" r="52.93" gradientTransform="translate(694.15 291.28) rotate(.15) scale(.19 -.19)" xlink:href="#radial-gradient-18"/>
    <radialGradient id="radial-gradient-36" cx="-4707.18" cy="1980.04" fx="-4707.18" fy="1980.04" r="53.61" gradientTransform="translate(694.15 291.28) rotate(.15) scale(.19 -.19)" xlink:href="#radial-gradient-2"/>
    <radialGradient id="radial-gradient-37" cx="-4700.95" cy="1904.62" fx="-4700.95" fy="1904.62" r="49.87" gradientTransform="translate(694.15 291.28) rotate(.15) scale(.19 -.19)" xlink:href="#radial-gradient-18"/>
    <radialGradient id="radial-gradient-38" cx="-4565.58" cy="1849.94" fx="-4565.58" fy="1849.94" r="50.26" gradientTransform="translate(694.15 291.28) rotate(.15) scale(.19 -.19)" xlink:href="#radial-gradient-2"/>
    <radialGradient id="radial-gradient-39" cx="-3855.47" cy="1796.38" fx="-3855.47" fy="1796.38" r="58.79" gradientTransform="translate(694.15 291.28) rotate(.15) scale(.19 -.19)" xlink:href="#radial-gradient-17"/>
    <radialGradient id="radial-gradient-40" cx="-4718.28" cy="2007.57" fx="-4718.28" fy="2007.57" r="45.25" gradientTransform="translate(694.15 291.28) rotate(.15) scale(.19 -.19)" xlink:href="#radial-gradient-18"/>
    <radialGradient id="radial-gradient-41" cx="-4527.41" cy="1944.63" fx="-4527.41" fy="1944.63" r="45.6" gradientTransform="translate(694.15 291.28) rotate(.15) scale(.19 -.19)" xlink:href="#radial-gradient-2"/>
    <radialGradient id="radial-gradient-42" cx="-4853.76" cy="2166.2" fx="-4853.76" fy="2166.2" r="41.87" gradientTransform="translate(694.15 291.28) rotate(.15) scale(.19 -.19)" xlink:href="#radial-gradient-18"/>
    <radialGradient id="radial-gradient-43" cx="-4647.8" cy="2083.28" fx="-4647.8" fy="2083.28" r="41.9" gradientTransform="translate(694.15 291.28) rotate(.15) scale(.19 -.19)" xlink:href="#radial-gradient-2"/>
    <radialGradient id="radial-gradient-44" cx="-4081.08" cy="1958.69" fx="-4081.08" fy="1958.69" r="31.19" gradientTransform="translate(694.15 291.28) rotate(.15) scale(.19 -.19)" xlink:href="#radial-gradient-17"/>
    <radialGradient id="radial-gradient-45" cx="-4701.16" cy="1776.04" fx="-4701.16" fy="1776.04" r="38.71" gradientTransform="translate(694.15 291.28) rotate(.15) scale(.19 -.19)" xlink:href="#radial-gradient-18"/>
    <radialGradient id="radial-gradient-46" cx="-4550.46" cy="1717.1" fx="-4550.46" fy="1717.1" r="39.18" gradientTransform="translate(694.15 291.28) rotate(.15) scale(.19 -.19)" xlink:href="#radial-gradient-2"/>
    <radialGradient id="radial-gradient-47" cx="-5765.14" cy="1843.5" fx="-5765.14" fy="1843.5" r="36.79" gradientTransform="translate(694.15 291.28) rotate(.15) scale(.19 -.19)" xlink:href="#radial-gradient-10"/>
    <radialGradient id="radial-gradient-48" cx="-3899.16" cy="1836.54" fx="-3899.16" fy="1836.54" r="33.11" gradientTransform="translate(694.15 291.28) rotate(.15) scale(.19 -.19)" xlink:href="#radial-gradient-17"/>
    <radialGradient id="radial-gradient-49" cx="-3823.77" cy="1939.8" fx="-3823.77" fy="1939.8" r="35.23" gradientTransform="translate(694.15 291.28) rotate(.15) scale(.19 -.19)" xlink:href="#radial-gradient-17"/>
    <radialGradient id="radial-gradient-50" cx="-4837.73" cy="1878.06" fx="-4837.73" fy="1878.06" r="11.93" gradientTransform="translate(694.15 291.28) rotate(.15) scale(.19 -.19)" xlink:href="#radial-gradient-18"/>
    <radialGradient id="radial-gradient-51" cx="-1574.33" cy="4243.73" fx="-1574.33" fy="4243.73" r="742.32" gradientTransform="translate(827.2 82.4) rotate(26.33) scale(.19 .07) skewX(-.11)" gradientUnits="userSpaceOnUse">
      <stop offset="0" stop-color="#b9babe"/>
      <stop offset=".32" stop-color="#818386"/>
      <stop offset=".58" stop-color="#5d5e60"/>
      <stop offset=".72" stop-color="#4f5152"/>
      <stop offset=".77" stop-color="#4a4b4c"/>
      <stop offset=".83" stop-color="#3a3b3c"/>
      <stop offset=".9" stop-color="#212223"/>
      <stop offset=".97" stop-color="#000"/>
    </radialGradient>
    <radialGradient id="radial-gradient-52" cx="-4765.71" cy="1997.35" fx="-4765.71" fy="1997.35" r="11.31" gradientTransform="translate(694.15 291.28) rotate(.15) scale(.19 -.19)" xlink:href="#radial-gradient-18"/>
    <radialGradient id="radial-gradient-53" cx="-2391.08" cy="1836.94" fx="-2391.08" fy="1836.94" r="7.89" gradientTransform="translate(802.66 93.3) rotate(.15) scale(.19)" gradientUnits="userSpaceOnUse">
      <stop offset=".26" stop-color="#000"/>
      <stop offset=".42" stop-color="#050505"/>
      <stop offset=".5" stop-color="#0b0b0b"/>
      <stop offset=".95" stop-color="#000"/>
      <stop offset=".98" stop-color="#000"/>
    </radialGradient>
  </defs>
  <g id="Layer_2" data-name="Layer 2">
    <rect width="1275.65" height="508.7" rx="11.87" ry="11.87" fill="#fff" opacity=".9" stroke-width="0"/>
  </g>
  <g id="Layer_1" data-name="Layer 1">
    <g id="Layer_3" data-name="Layer 3">
      <path d="M384.07,40.45l191.84,35.18c18.48,3.39,30.69,21.01,27.28,39.36l-60.68,326.49c-3.41,18.35-21.15,30.48-39.63,27.09l-191.84-35.18c-18.48-3.39-30.69-21.01-27.28-39.36l60.68-326.49c3.41-18.35,21.15-30.48,39.63-27.09Z" fill="none" stroke="#000" stroke-linecap="round" stroke-miterlimit="10" stroke-width="5.98"/>
      <path d="M64.47,98.05l185.22-60.09c17.86-5.79,37.07,3.89,42.9,21.63l103.69,315.27c5.83,17.74-3.91,36.82-21.77,42.61l-185.22,60.09c-17.86,5.79-37.07-3.89-42.9-21.63L42.69,140.66c-5.83-17.74,3.91-36.82,21.77-42.61Z" fill="none" stroke="#000" stroke-linecap="round" stroke-miterlimit="10" stroke-width="5.98"/>
      <path d="M224.64,465.88l-34.85,11.3c-17.86,5.79-37.06-3.89-42.9-21.62L43.23,140.27c-5.83-17.74,3.92-36.81,21.77-42.61l34.85-11.3" fill="#6da6c2" stroke="#000" stroke-linecap="round" stroke-miterlimit="10" stroke-width="5.98"/>
      <path d="M346.31,439.86l-36.05-7.42c-18.47-3.39-30.69-21.01-27.28-39.36l60.62-326.16c3.41-18.35,21.15-30.48,39.71-26.7l36.05,6.62" fill="#0a3a5e" stroke="#000" stroke-linecap="round" stroke-miterlimit="10" stroke-width="5.98"/>
    </g>
    <g>
      <path d="M492.13,336.03c2.44-2.58,5.97-.59,8.18,2.17,2.22,2.77,1.31,6.61.39,10.02-1.21,4.52-3.69,8.33-7.93,6.86-1.2-1.38.2-3.3,1.77-4.25,1.67-1.01,3.48.77,3.98,1.06.11.06.2.14.29.22.64.57,1.18.86,4.17,4.09,1.63,1.76,2.07,4.61,4.25,5.68,1.77.85,3.86.41,5.75-.11,2.03-.57,4.14-1.28,5.48-2.88,1.19-1.41,1.51-3.65.33-5.15-.92-1.17-2.52.07-3.09.97-.67,1.04-.98,2.3-1.15,3.51-.44,3.29-.74,6.64-.11,9.9.64,3.26,2.33,6.43,5.16,8.2M497.64,324.78c-.55,2.37-1.55,4.64-2.92,6.66-.42.61-.9,1.26-.93,2.01s.6,1.56,1.34,1.39M493.34,332.76c-2.62,2.35-4.69,5.29-6.07,8.51,2.28-3.35,4.57-6.69,6.86-10.04-1.11,1.94-2.2,3.87-3.3,5.82,1.07-1.02,1.79-2.39,2.08-3.83l.85-.41M494.5,334.39c.23-1.3.46-2.61.72-3.92-.53,1.47-1.73,2.68-1.72,4.23M493.93,333.47l.23-1.11M493.51,334.15c.64-3.09,1.53-6.13,2.64-9.09.51.5.07,1.34-.34,1.92-1.43,2.06-2.34,4.48-2.61,6.97M493.15,332.65c-2.34,3.44-4.37,7.09-6.02,10.92.68-2.51,2.09-4.85,4.01-6.62M497.28,324.05c-1.62,1.66-1.82,4.15-1.8,6.47.02,2.25-1.51,4.05,2.83,6.29-1.17-1.76-2.2-3.68-2.58-5.75-.38-2.07-.07-4.35,1.21-6.05-1.32,3.58-5.93,7.88-4.18,11.26,2.24-.16,2.95.93,3.12-.67.26-2.41.36-8.88,1.27-11.13M498.91,318.98c-1.52,2.53-2.77,5.26-3.29,8.16s-.25,6,1.12,8.6c-1.02-3.42-.54-7.08-.03-10.62.09-.68.2-1.38.62-1.92M498.68,319.58c-3.67,4.73-4.48,12.22-1.94,17.62-.54-.34-.58-1.73-.63-2.37-.22-3.38,1.16-6.96.96-10.06M493.05,334.36c-2.17.99-3.54,3.16-4.77,5.19-1.5,2.47-2.99,4.94-4.49,7.41.94-2.07,2.93-3.64,3.34-5.87M485.45,346.68c1.13-1.28,1.97-2.76,2.82-4.23,1.04-1.82,2.09-3.64,3.11-5.46M498.43,354.27c1.06-1.31,1.78-3.05,1.6-2.76.92-3.3,1.06-6.67.21-9.84-.31-1.16-.81-2.31-1.7-3.11-1.37-1.25-3.37-1.45-5.22-1.59-1.11-.08-2.55,1.5-3.49,2.7,3.25-3.2,10.37-4.14,11.36,3.32-1.45-2.52-4.93-8.7-7.35-7.31-1.72.99-3.86,2.03-5.08,3.59M495.86,323.02c-.22,1.87-.39,3.76-.22,5.63.27,3.09,2.73,7.12,4.68,9.57M500.52,318.33c-2.05,3.56-3.79,7.28-5.23,11.13M497.24,324.51c1.96-3.95,3.68-8.02,5.15-12.18M497.31,325.12c.97-1.61,1.92-3.23,2.83-4.88-.11.23-.21.45-.32.69.35-.56.7-1.12,1.04-1.69-1.52,1.81-2.81,3.81-3.81,5.94,1.4-2.27,2.75-4.56,4.06-6.89-1.87,3.2-3.82,6.35-5.87,9.45,2.26-3.71,4.39-7.48,6.41-11.31-2.9,3.63-5.14,7.8-6.56,12.22,1.14-4.38,3.25-8.51,6.12-12.01-2.32,3.27-4.17,6.88-5.44,10.67,1.8-3.93,3.64-7.93,6.41-11.24-.61.27-1,.88-1.35,1.45-2.25,3.66-4.21,7.48-5.9,11.42,2.9-4.73,3.9-10.57,7.55-14.75-3.04,5.12-5.68,10.48-7.87,16.01,1.67-3.78,3.34-7.55,5.01-11.33l-5.27,9M521.71,376.82h-.68M520.54,376.67c.49.25,1.1.21,1.55-.1-.81.46-1.91.36-2.61-.25.63.47,1.44.71,2.22.69M522.33,376.96l-2.53-.64c.4.41,1.03.57,1.57.39M522.44,376.57l1.36-.27M498.52,323.23c1.14-1.07,1.86-2.27,2.45-3.58.81-.77,1.64-1.55,2.64-2.07-1.18.56-2.18,1.48-2.85,2.61.92-1.15.97-3.01,1.88-4.17-.94.52-.83,2.07-1.24,3.04l2.25-2.91M483.37,348.93c.58-.53,1.16-1.07,1.73-1.59.23-.22.47-.43.59-.73.22-.56.04-1.39.6-1.63-1.07,1.36-2.1,2.74-3.12,4.15M482.57,349.5c1.56-1.29,2.95-2.81,4.1-4.47M499.65,322.3c-2.62,4.53-2.71,11.74-.51,16.21M496.3,328.26c.59,3.69,2.19,8,4.26,11.12M302.46,149.59c-1.97-2.48-1.96-5.6.14-8.72,3.76-4.77,8.22-8.7,13.53-11.66,5.31-2.96,11.34-3.62,17-2.13.2.05.4.11.6.17.12.03.23.07.32.16.08.09.11.22.12.35.17,1.46-.35,2.95-1.2,4.15-.86,1.2-1.55,2.43-3.31,2.89-1.72,1.05-3.66,1.82-5.68,1.92-1.98.1-3.97-.44-5.72-1.4-3.88-1.62-4.49-4.97-5.2-9.81-.11-2.09.9-3.28,2.25-4.31,1.27-.95,2.53-1.94,3.84-2.84,1.09-.76,2.24-1.45,3.48-1.89,1.37-.49,2.94-.62,4.33-.08,1.17.46,2.29,1.41,1.48,2.72-.82,1.33-2.56,1.47-3.96,1.7-1.16.18-2.35.32-3.52.3-2.32-.05-4.61-.76-6.08-2.65-.68-.87-1.08-1.94-1.65-2.89-.7-1.15-1.48-2.25-2.34-3.29-1.14-1.38-2.5-2.72-4.31-3.14-2.54-.59-4.74,1.19-6.33,2.97-1.05,1.17-1.8,2.59-2.82,3.77-.83.97-1.73,1.93-2.7,2.79-1.98,1.75-4.38,3-7.04,3.33M342.96,178.54c6.73-8.4,8.85-18.81,3.64-28.19-5.21-10.43-16.77-.04-25.17,3.05-4.2,1.03-7.34,3.1-12.05,1.29M343.75,173.63c.08.01.07-.16,0-.14M343.46,174.87c3.37-5.31,5.16-11.61,5.07-17.89.07,6.68-1.69,13.37-5.08,19.15-.61,1.03-1.43,2.16-2.65,2.28.89-2.11,2.27-4.02,4.01-5.52-2.15,1.47-4.3,2.94-6.47,4.39,2.97-.55,5.57-2.44,7.42-4.84,1.84-2.39,2.98-5.22,3.85-8.1l-2.09,5.39c1.68-4.55,3.36-9.46,2.11-14.13l.02,6.34M344.81,170.17c-.61,2.96-2.78,5.54-5.59,6.7,1.99-.43,3.72-1.75,4.94-3.39s1.95-3.58,2.47-5.53c1.68-6.24,1.3-12.99-1.05-19.02,1.4,3.04,2.2,6.35,2.31,9.7M346.01,151.06c.19-1.02-.37-2.05-1.12-2.79-1.49-1.46-3.66-2.07-5.75-2.03s-4.13.68-6.07,1.4M345.47,151.93c-.45-1.53-1.67-2.77-3.05-3.58-1.38-.81-2.92-.65-4.48-1.1-.61-.18-1.25-.98-1.89-.98-1.97-.02-3.56,1.5-4.88,2.96M347.69,163.58c1.24-2.44.69-5.41-.32-7.98-.46-1.2-1.03-2.39-1.87-3.38-1.15-1.36-2.74-2.3-4.3-3.19-.94-.55-2.24-.81-3.31-1.04-1.36-.3-2.45-.33-3.8.04-2.48.67-4.84,1.74-6.97,3.17M350.42,163.64c.08-3.43-.3-6.97-1.8-10.06-1.5-3.09-4.27-5.72-7.66-6.41-1.53-.32-3.11-.23-4.66-.02-5.45.74-10.8,3.15-14.38,7.31,3.06-2.66,6.35-5.06,9.85-7.13,1.16-.7,2.58-1.37,3.82-.81M347.18,163.81c-.65,2.76-1.72,5.42-3.15,7.86.36-.54.78-1.05,1.24-1.51M336.68,175.11c1.72.76,3.71-.15,5.24-1.24,1.05-.76,2.05-1.59,2.95-2.52.62-.64,1.26-1.54.9-2.35M336.96,174.21c.23.72,1.25.71,1.98.52,2.7-.72,5.22-2.11,7.27-4.01M337.24,173.9c.97.75,2.4.6,3.52.09s2.09-1.32,3.2-1.85c1.22-.59,2.7-.89,3.51-1.96M337.29,174.12c2.11.4,4.25-.48,6.05-1.67s3.34-2.69,5.2-3.76M337.54,173.98c.35.51,1.14.21,1.66-.12.98-.63,1.94-1.27,2.92-1.9,1.89-1.24,3.8-2.48,5.42-4.06M340.76,172.74c-.78.88-2.21.57-3.32.91-1,.31-1.76,1.17-2.76,1.54-.97.37-2.15.26-2.95.91-.35.27-.58.64-.81,1.01-1.27,2.08-2.33,4.26-3.2,6.53M337.54,173.32c-.37.41-1.02.29-1.59.31-.81.02-1.57.41-2.28.82-2.81,1.64-5.34,3.75-7.45,6.21M342.57,147.63c-1.9-1.75-4.81-2.33-7.24-1.45-.06-.26.34-.36.61-.32,1.13.18,2.23.55,3.24,1.09M341.11,147.24l-.34-.17M344.42,148.44c-.77-1.29-2.2-2.11-3.66-2.49s-3.01-.35-4.53-.33c-.66,0-1.35.04-1.91.38,2.7-.79,5.57.35,8.16,1.47M316.58,154.22c1.48.71,5.54.16,6.33-1.52M313.8,155.58c1.4.2,2.83.39,4.22.17s2.78-.96,3.45-2.2M307.21,155.54c.43.22.93.24,1.41.24,3.71.03,7.42-.33,11.05-1.06M317.97,155.88c-.02.31.4.45.68.34s.49-.36.75-.51c.27-.16.6-.19.89-.31,1.11-.45,1.6-2.1,2.81-2.11M320.18,155.1c.71,1.27,3.67-2.44,4.09-2.97M303.37,151.48c1.11.41,1.57,1.71,2.43,2.52,1.73,1.64,4.61.97,6.82,1.87M307.59,154.46c1.61,1.09,4.76,1.89,6.7,1.99M301.51,141.9c-1.49,2.36-.42,1.51-.68,2.26-.52,1.56.08,3.25.75,4.76.53,1.22,1.11,2.42,1.72,3.6M307.26,136.36c.12-.24-.65.88-.92.88s-.49.19-.69.35c-1.12.98-2.08,2.13-2.88,3.39M308.94,134.47c-2.33,1.85-5.32,4.22-6.95,6.75M313.24,132.38c-1.54.41-3.01,1.13-4.28,2.09-1.75,1.33-3.13,3.08-4.47,4.82M304.85,138.4c-1.89,2.5-2.94,5.63-2.95,8.76,0,.9.07,1.8.37,2.65.55,1.59,1.82,2.84,3.18,3.85,2.16,1.6,4.86,2.78,7.52,2.3M300.65,143.66c-.7,2.08-.17,4.41.92,6.33,2.08,3.69,6.23,6.13,10.49,6.19,1.84.02,3.66-.37,5.45-.76l3.56-.77M313.08,154.8c4.53.29,9.62-1.39,13.29-3.98,2.15-1.52,5.77-5.68,8.71-4.88M341.82,148.02c-2.33-1.34-5.26-1.36-7.86-.63s-4.95,2.1-7.27,3.47l-7.08,4.18M345.97,150.73c.28-.41.21-.99-.03-1.43s-.64-.77-1.03-1.09c-1.34-1.1-2.75-2.24-4.44-2.57-.58-.12-1.15-.13-1.73-.22-.54-.09-1.06-.25-1.59-.32-1.99-.24-3.91.81-5.47,2.08M333.6,147.57c-.96,1.19-2.58,1.58-4.06,2-2.79.77-5.49,1.87-8.02,3.26-.6.32-1.18.68-1.66,1.16-.32.33-.57.72-.91,1.01-.61.55-1.48.79-2.29.63M304.99,153.78c1.37,1.29,4.52,3.8,6.47,3.54,1.42-.19,5.64-.54,6.53-.96.26-.13,1.12-.65,1.4-.67.52,0,2.47-1.52,2.84-1.88.58-.55-3.48,1.21-3.25.46M313.34,154.91c1.59.75,3.37.28,4.92-.33M328.31,135.89c2.83-1.1,5.38-2.87,7.41-5.12-1.04,2.69-3.64,4.59-6.43,5.39s-5.77.66-8.65.21c-1.39-.21-2.8-.5-4.09-1.04-.76-.33-1.57-.85-1.65-1.68,4.62,2.44,10.18,3.09,15.26,1.78,1.65-.42,3.28-1.08,4.48-2.27,1.18-1.16,1.85-3.01,1.15-4.51-.34-.74-.96-1.32-1.66-1.74-1.39-.83-3.06-1.1-4.67-1.16-5.1-.18-10.14,1.47-14.51,4.09-4.37,2.61-8.08,6.17-11.43,9.99M314.64,121.29c-2.22,2.2-2.4,4.86-1.44,9.46M313.26,154.83c2.92-.07,5.82-.77,8.45-2.04,1.09-.53,2.14-1.15,3.18-1.77,3.22-1.92,6.45-3.84,9.68-5.76M317.02,154.44c6.68-.98,12.95-3.98,17.69-8.77M312.36,132.66c-.28.33-.53-.35,0-.77.08-.07-.34.12-.31.22,1.6,1.47,2.27,2.15,3.62,2.79-.22-.12-.85-.83-1.08-.95M321.17,116.08c-1.94.57-3.57,2.41-5.12,3.4-.74.48-1.47.97-2.03,1.65s-.99,1.75-1.34,2.87M328.73,116.91c-.35-.63-.7-1.26-1.36-1.35-.32-.04-.64-.02-.95,0-3.29.27-6.5,1.36-9.28,3.13-.75.48-1.48,1.01-1.96,1.75M316.07,120.89c.98.76,2.2,1.22,3.44,1.3.56.03.88-.51,1.43-.58M320.05,122.05c1.91-.18,4.51-.55,6.29-1.23,1.28-.49,2.67-1.26,2.68-2.8,0-.8-.42-1.55-1.07-2.04-1.36-1.03-3.1-.92-4.67-.54-3.41.79-6.55,2.66-8.86,5.28M316.87,155.61c-1.95-.18-4.6-.6-7.07-.33M314.11,154.74c2.28,0,5.32-.31,7.54-.92M305.78,137.77c-1.89,2.12-3.44,4.4-3.79,7.65M315.15,153.79c-.66.12-1.33.16-1.99.17-.02-.02-.07-.03-.18-.02-.03,0-.07,0-.11,0h-.19c-2.05-.05-4.06-.58-5.89-1.54-1.22-.8-2.4-1.74-3-3.1-.11-.22-.83.02-.76.2.11.24.23.45.37.68-.17.07-.31.18-.23.26.87.95,1.87,1.74,2.98,2.38-.21.06-.39.17-.31.23.36.23.73.43,1.11.6-.06.02-.14.04-.19.06-.07.04-.26.17-.08.22,1.97.56,4.01.7,6.06.45.05,0,.19-.06.3-.13.66-.02,1.32-.07,1.97-.18.09-.02.43-.08.44-.22,0-.14-.22-.11-.32-.09h0s0,.02,0,.02ZM288.72,121.49c-.55.07-1.65.13-2.63.11s-2.28-.59-1.62.1c.43.45,1.66.71,2.18.79,1.22.17,2.57-.56,2.9-.63.64-.16-.31-.43-.83-.36h0ZM349.58,152.12l-2.28-3.54c-.07-.12-.37-.07-.56.02-.04-.06-.07-.13-.12-.18-.14-.2-.88.04-.71.29.07.12.15.23.22.34.12.35.33.62.58.89.52.83,1.04,1.67,1.56,2.5.07.13.39.07.58-.03h0c.14.21.85-.03.71-.29h0ZM340.94,144.07c-1.14-.49-2.78-.37-3.92.05-.51.19-.95.52-1.36.86-.51.4-1.19.95-1.44,1.58-.25.67.22,1.44.46.7.63-2.04,1.94-2.53,3.91-2.04.88.22,1.72.61,2.62.76,1.67.26.61-1.51-.26-1.91h0ZM331.57,133.98c-.16-.09-.44-.05-.6,0-1.62.52-3.27.97-4.94,1.36-.12.03-.39.13-.34.28,0,.02.03.02.04.04h-.02s-.08.03-.13.04c-.07.03-.16.08-.2.15-.02,0-.05,0-.07.02-.12.03-.43.15-.32.31.11.16.53.07.66.04.88-.22,1.76-.4,2.65-.61.77-.18,1.52-.4,2.19-.8.2-.05.4-.11.6-.16.12-.03.43-.15.32-.31,0,0-.02,0-.03-.02.04-.03.09-.06.14-.08.12-.07.18-.18.04-.26h0ZM331.39,126.36s-.05.05-.09.06c0,0,0,.02-.02.03-.04.04-.08.07-.14.08-.03,0-.07.02-.11.03-.08.02-.18.02-.26.02-.04,0-.09,0-.14-.01-.06,0-.12-.02-.18-.04-.05,0-.09-.03-.14-.06-.03-.02-.05-.04-.06-.08,0-.03,0-.05.01-.08,0,0,0-.02.02-.03h0s.04-.05.06-.07c0,0,.02,0,.03-.02.02,0,.06-.03.09-.04.02,0,.04,0,.06-.02.02,0,.04,0,.06-.02.08-.02.18-.02.26-.02.04,0,.09,0,.14.01.08.01.16.03.23.06.03,0,.05.03.08.04.03.02.05.04.06.08,0,.03,0,.05-.01.08h0s.03,0,.03,0ZM313.43,155.86c-.07.07-.21.11-.31.13-.13.02-.28.04-.41.02-.03,0-.06-.02-.08-.02-.19.04-.4.05-.58,0h0c-.11,0-.21.02-.32,0-.16,0-.33-.02-.47-.11-.11-.06-.17-.18-.07-.28.14-.16.4-.2.6-.21.12,0,.23,0,.35.04.09-.05.2-.09.32-.12.22-.04.49-.05.7.05.04.02.07.05.09.08h.03s.07.05.08.09c0,0,0,.02-.02.03,0,0,0,0,.02.02.05,0,.11.03.14.07.05.06,0,.13-.04.17h0s-.01.03-.01.03ZM347.07,159.36c.01-.18-.71,0-.76.16-.44,1.36-.39,2.82-.53,4.23-.07.39-.15.79-.23,1.18-.03.02-.05.04-.06.07l-.14.3s0,.05.04.07c-.07.31-.15.59-.22.9-.01.06.03.09.09.11-.08.17-.16.33-.24.48-.25.49-.54.96-.85,1.41-.5.72-1.04,1.4-1.6,2.08-.05.04-.11.09-.16.14-.03.02-.06.04-.09.06-.17.13-.35.24-.53.35-.42.19-.86.35-1.29.5-1.38.48-2.8.87-4.23,1.25h-.09c-.15-.01-.26,0-.28.11-.47.13-.94.25-1.41.37-.21.05-.04.23.04.31.18.15.44.2.66.2.64,0,1.27-.06,1.9-.15.06.02.12.03.16.02.03,0,.06,0,.08-.02h.02c.72-.12,1.41-.26,2.12-.45,1.47-.24,2.87-.76,4.16-1.55.15-.09-.15-.27-.45-.38,1.04-.52,2.03-1.17,2.77-2.1.19-.24-.6-.57-.87-.45.04-.06.09-.13.14-.19.31-.45.59-.93.84-1.41.25-.5.57-1.07.58-1.65,0-.13-.18-.2-.38-.23.12-.46.21-.94.25-1.41.25-1.39.42-2.8.53-4.21h0v-.04s.03-.02.03-.02v-.04ZM343.09,150.17c-.77-.41-1.54-.82-2.31-1.23.21.1.45.18.67.11s.37-.36.23-.54c.42.08.87-.08,1.15-.41-2.09-1.18-.41.16-2.77.61,3.22,1.74-1.59-.46-1.14-.29-.33-.18-1.41.02-1.67.28.58.1-2.34-.32-1.77-.22-1.94-.24-1.49-.47-3.23.4.21.16.49.2.74.12-.32.41-.93.58-1.41.37.29-.25.49-.61.55-.99-3.25,1.39-6.12,3.5-9.16,5.29-2.03,1.2-4.18,2.27-6.48,2.86-2.45.63-4.91.47-7.41.23-.78-.07-1.57-.15-2.28-.48-1.04-.49-1.63-1.42-2.36-2.26-.86-.99-1.77-1.93-2.61-2.93-.96-1.14-1.35-2.82-1.85-4.2-.34-.9-.28-1.74-.06-2.68.11-.46.37-.98.84-1,.1,0,.55-.93.63-1.05.23-.36.47-.7.72-1.04.5-.67,1.05-1.31,1.64-1.91.58-.59,1.2-1.13,1.85-1.65.65-.51.79-1.22,1.41-1.77-.19.17.18-.26.24-.4.08-.17.23-.3.38-.42.7-.57,1.4-1.15,2.11-1.72.32-.26.63-.57.97-.8.3-.21.39-.07.7.07-.19.2-.38.4-.57.6.79.24,1.65.03,2.38-.36.72-.39,1.06-1.15,1.71-1.66,2.41-1.92,5.52-3.03,8.41-4.08-.14-.25-.51-.21-.79-.13-1.75.48-3.46,1.12-5.11,1.9-.83.4-1.65.83-2.44,1.29-.4.23-.79.47-1.18.73-.23.15-.51.35-.78.41-1.37.29-.84-5.68-.72-6.51.15-1.01.48-1.99.98-2.88.15-.26.6-1.23.92-1.29.21-.04.38.15.57.2.27.06.55.03.79-.1-.35-.31-.61-.73-.73-1.18-.01-.05-.02-.1,0-.14.02-.05.06-.08.11-.1.22-.14.58-.27.65-.53-.06-.04-.12-.05-.19-.05-.37,0-.74.08-1.08.23.14-.06-1.83-3.34-2.02-3.62-.81-1.17-1.75-2.21-2.68-3.28-.39-.45-.65-.99-1.03-1.45-.43-.53-.5-.74-1.15-.92-.2-.06-.22-.09-.36-.26-.23-.28-1.06-.21-.71-.1,2.26.75,3.73,3.37,4.97,5.18.96,1.39,1.92,2.79,2.82,4.22.06.09.74,1.08.63,1.17-1.64,1.3-2.52,2.53-2.89,4.58s-.3,3.77.71,6.95c-1.47,1-4.72,2.04-5.95,3.33-1.21,1.51-2.58,2.69-3.76,4.1-1.43,1.71-2.95,3.36-3.48,5.57-.61,2.5-.8,4.98.29,7.39,2.06,4.55,7.31,7.19,12.19,7.2,1.03,0,2.05-.11,3.05-.34,4.87-1.13,8.73-4.74,13.2-6.97,4.63-2.31,10.18-3.1,15.06-1.37-.03-.02-.07-.03-.1-.05ZM501.71,318.84c-.42.49-.8.98-1.16,1.51-.26,0-.58.07-.65.22-2.15,4.13-4.77,8.82-4.64,13.58,0,.26,1.46-.18,1.46-.51,0-.22.02-.42.02-.63.13-.03.22-.09.21-.18-.26-2.61,1.08-5.25,2.08-7.58.96-2.25,2.11-4.42,3.7-6.29.17-.19-.8-.37-1-.13l-.02.02h0Z" fill="none" stroke="#000" stroke-miterlimit="10" stroke-width=".99"/>
      <path d="M352.39,155.28c-.15-.55-.34-1.09-.57-1.6-.06-.17-.13-.33-.19-.49-.26-.74-.35-1.51-.67-2.25s-.76-1.44-1.21-2.11c-1.82-2.64-4.82-5.3-8.07-5.9-.74-.14-1.52-.26-2.28-.18-4.42.5-7.82,3.1-11.59,5.14-3.25,1.76-6.63,3.33-10.13,4.5-.85.19-1.72.69-2.56.73-.74.28-.55.05-2.02.4-.07.09-.11.17-.11.24-.44.11-.86.27-1.02.54-.31.5.27.48.7.45,5.66-.47,11.14-2.08,16.18-4.74.09-.05.2-.09.3-.15.51-.27.38-.44-.03-.6-.42-.15-1.12.06-1.64.25-.09-.03-.2-.05-.31-.05,1.46-.73,2.9-1.48,4.33-2.27.91-.51,1.8-1.02,2.7-1.55.43-.25.88-.62,1.33-.8.56-.22.64-.2,1.07.28.23.26,1.02.14,1.72-.1.25.16.58.22.89.22.2.18.46.31.73.36,2.02.42,3.66,1.93,4.89,3.54-.08.04-.17.11-.24.16-.83-.89-1.86-1.64-3.04-2.16-.73-.33-2.78.31-2.41,1.38.63,1.87,2.11,3.03,3.36,4.48.79.93,1.19,1.95,1.38,3.01,0,.15.02.27.06.38.16,1.13.1,2.3.04,3.49-.18,3.75-.11,10.01-4.02,12.12-.14.07-.25.16-.36.24.21-.57-.4-.83-.89-.84-.87-.03-1.71.08-2.51.32-.28.05-.56.14-.74.2-.09.03-.19.07-.28.11-2.21.67-4.24,1.81-5.95,3.37-1.14,1.02-2.15,2.19-3.19,3.31-1.34,1.14-2.5,2.46-3.25,4.11-.02.03-.04.06-.04.09-.03.08-.08.16-.12.24-.24.59.82.74,1.14.73.63-.02,1.45-.26,1.8-.82.64-1.01,1.38-1.96,2.15-2.89.37-.06.73-.2.99-.37.94-.62,1.61-1.43,2.28-2.26.34-.21.68-.41,1-.62.32-.2.59-.54.55-.85.22-.19.42-.39.65-.58.81-.65,1.76-1.47,2.81-1.91.62-.18,1.26-.29,1.93-.34.39-.03.92-.2,1.29-.48-.36.84,4.5,3.5,5.66,2.87,3.05-1.66,3.25-2.26,3.92-5.38.53-.16-.2-5.02-.15-5.59.28-2.68.1-1.97,0-4.67.04-.96.05-1.76,0-2.72.34.58-.15-2.05.19-1.49.12.18.31.3.52.38.49,1.43,3.44.66,3.03-.86Z" fill="#000" stroke-width="0"/>
      <path d="M330.47,135.29c-1.13.46-2.4.64-3.58.9-1.14.25-2.35.6-3.52.66-2.21.12-4.29-1.06-6.19-2.02-.82-.42-2.88-1.64-3.83-1.6-.87.04-.88.13-1.7.72-1.48,1.07-2.73,2.91-3.99,4.2-.54.55-1.07,1.13-1.56,1.74-.28.54-.53,1.1-.74,1.69-.24,2.14-.29,4.31-.08,6.46.02.23.05.46.08.7.12.99.02,1.39,1.09,2.77.57.73,2.07.99,2.89,1.23,1.69.5,3.4.91,5.1,1.33,1.28.32,2.57.63,3.84,1,.41.12,2.69.68,1.62,1.28-1.83,1.02-4.05,1.82-6.13,2.08-1.53.18-3-.06-4.53-.15-1.26-.07-2.56-.18-3.69-.84-.6-.35-1.09-.85-1.63-1.28-.62-.48-1.36-.74-1.98-1.22-.94-.71-1.4-2.01-1.79-3.07-.41-1.13-.78-2.29-.91-3.49-.21-2.02.62-3.69,1.41-5.5.7-1.6,1.6-3.14,2.8-4.42.87-.92,1.89-1.77,2.84-2.6.65-.57,1.32-1.12,2-1.64,1.37-1.06,2.8-2.03,4.28-2.91,1.04-.62.92-1.97,1.63-1s3.59,3.52,4.2,3.66c3.25.75,6.25.64,10.36-.35.97-.23,3.68-1.31,3.58-1.49-.39-.68.53.97-.71,2.39-.15.17-.32.33-.52.44-.22.13-.45.23-.68.33ZM335.88,130.64c0-.13-.02-.25-.03-.38.02-.33,0-.65-.06-.99.02-.09.03-.18,0-.26,0-.02-.02-.05-.02-.07-.04-.53-.07-1.07-.12-1.59-.02-.25-.42-.42-.59-.46-.15-.04-.32-.04-.49-.04-.34-.44-.76-.78-1.32-.93-.06-.02-.15-.01-.22-.02-.08-.03-.17-.06-.25-.07-.45-.08-.89-.08-1.33.03-.23.06-.45.16-.65.26-.15-.31-.55-.48-.92-.53-1.54-.19-3.08.05-4.58.4-1.34.32-2.66.68-4,1.03-.25.06-.58.21-.84.41-.08.02-.17.04-.25.06-.3.07-1.49.38-1.4.84.06.32.79.22,1.27.12.26.59,1.22.58,1.73.45,1.23-.32,2.47-.65,3.7-.96,1.31-.32,2.69-.37,4.04-.43.2,0,.41-.02.61.02.17.03.33.09.48.15.6.22,1.24.52,1.57,1.09.45.76.6,1.76.4,2.62-.11.49-.65,1.43-.26,1.89.19.23.57.36.84.37.4.02.82-.04,1.19-.21.28-.14.69-.35.8-.67.19-.51.38-1.03.51-1.55l.07-.09c.09-.15.13-.31.09-.49ZM291.45,119.59c-.24.15-.11.06,0,0h0ZM297.47,116.71c0-.29-2.32,1.55-2.61,1.58-.43.05,0-.46-.27-.11-.54.69-2.69,1.58-3.57,2.02-.88.44-2.03.39-2.87.9-.13.08-.27.17-.35.3-.25.39.26.58.32.92.05.3-1.03.57-.73.66s1.96,0,2.26-.06c1.71-.32,3.23-1.29,4.58-2.39.35-.29.61-.66.89-1.02.65-.84,2.37-2.63,2.38-2.79Z" fill="#000" stroke-width="0"/>
      <g>
        <path d="M494.78,355.08c-.21-.04-.11-.01,0,0h0Z" fill="#000" stroke-width="0"/>
        <path d="M501.12,351.38c.51-1.23.78-2.53.93-3.86.15-1.33.19-3.9.13-5.23-.36.89-.61,2.93-.88,3.86-.25.86-.04,1.77-.29,2.63-.21.72-.43,1.43-.68,2.14-.03.09-.06.18-.13.24-.23.25-.03.79-.35.91-.35.14-.44.88-.65,1.18-.34.51-.99.61-1.54.76-.66.17-1.29.47-1.96.59-1.11.2-3.29.65-3.72-.85-.17-.58.34-1.72.86-2.03-.75.58-1.73,1.83-1.67,2.77.05.77.66,1.42,1.38,1.7s1.52.23,2.29.11c3.25-.5,5.21-2.37,6.27-4.93Z" fill="#000" stroke-width="0"/>
      </g>
      <path d="M527.1,373.82c.16-.3.27-.59.34-.91.03-.16-.23-.15-.33-.14-.09.02-.2.04-.28.09-.05.03-.14.08-.15.15,0,.02-.02.04-.02.07-.06.03-.14.07-.17.14-.07.13-.17.25-.24.38-.09.04-.18.11-.21.2,0,.02-.02.04-.02.06h0c-.19.16-.39.3-.59.42-.08.03-.16.07-.21.14,0,0-.02.03-.03.04-.95.63-1.98,1.12-3.09,1.44-.14.04-.37.16-.32.32.04.17.32.16.44.13.18-.05.35-.12.52-.18-.09.06-.2.13-.3.18-.14.08-.3.25-.18.4.08.12.26.15.41.12.08.01.18,0,.22,0,.25-.05.51-.13.76-.21,0,0-.03.03-.04.03h0s-.07.05-.12.07h0s-.05.02-.07.04c-.03.02-.08.04-.13.05h-.02s-.04,0-.07.02c-.08.02-.17.04-.24.06h-.02c-.18-.03-.38,0-.54.09-.05.02-.19.13-.14.18,0,.02-.02.03-.02.05-.14.02-.26.06-.36.14-.13.12-.08.22.07.26.62.16,1.31.08,1.89-.18.3-.14.57-.3.78-.55.05-.05.09-.13.13-.19h0c.44-.19.84-.45,1.17-.79.59-.6.95-1.36,1.21-2.14h-.03s0,.02,0,.02Z" fill="#000" stroke-width="0"/>
      <path d="M490.23,274.13c.04-1.56-.05-3.17-.33-4.81-1.65-10.02-7.93-18.87-14.17-26.62-22.83-28.32-58.21-46.18-94.06-51.22-2.75-.39-5.65-.7-8.24.29-3.59,1.35-5.88,4.88-7.3,8.41-5.67,14.07-6.8,17.07-11.58,26.5-2.88,5.68-20.57,10.07-21.58,11.58-3.81,5.7.87,16.37-2.03,19.45-1.91,2.04-7.18,7.77-14.5,10.08-11.66,3.68-16.04-.15-21.47,1.35-5.04,1.39-3.47,13.27-8.6,15.97-9.27,4.91-17.19,4.64-20.85,5.3-8.57,1.52-12.62-6.52-21.25-5.4-6.14.79-7.12,10.94-13.31,10.95-12.96.05-13.3-1.45-39.11-9.22-1.15-.35-3.37-9.2-8.53-11.14-3.5-1.32-6.6,3.02-9.65,1.51,0,0-6.19-3.07-11.91-8.31-1.33-1.21-2.43-2.42-2.84-4.17-.48-1.98.63-3.5-1.05-8.13-3.12-8.64-8.15-1.51-11.8-6.73-6.1-8.75,1.58-22.14-.39-24.25-3.44-3.66-3.72-10.43-3.82-11.16-.89-6.55,5.17-9.22,6.98-14.98,1.36-4.32,14.74-10.23,9.21-14.91-6.74-5.7-13.51-3.82-16.95.21-3.11,3.66-15.44,8.46-19.76,19.8-1.98,5.21-11.49,4.71-12.86,7.87-1.4,3.25,1.24,5.74,1.83,11.23.9,8.34-1.56,21.4-3.94,27.01-2.54,5.98-7.95,1.96-6.31,10.28.93,4.69,5.06,12.47,10.09,19.44,7.01,9.71,8.31,16.46,16.91,31.89,1.13,2.04-.75,15.42,3.7,17.18,2.36.93,4.78,4.06,7.32,4.07,5.35.01,10.14,2.16,13.93,4.41,13.97,8.29,22.88,14,32.52,18.59,8.48,4.04,28.73,7.99,28.26,12.84-.23,2.4,1.63,8.89,11.42,11.73,4.99,1.45,13.63-3.51,20.95-5.41,5.93-1.54,26.39,5.65,75.34-1.09,1.02,1.14,2.67,2.6,4.93,3.97,2.12,1.29,4.62,2.32,7.19,2.43,2.71-1.73,9.41-1.75,12.14-7,5.95-11.42,23.77-12.05,28.43-14.25,32.54-12.88,40.07-17.25,50.28-22.03,5.32-2.48,14.16,1.6,18.45-.46,15.29-7.31-7.61-12.29,23.33-30.02,16.03-9.2,24.58-19.89,24.99-33.04h0s-.01.05-.01.05ZM178.87,296.41c.09-.06.19-.13.28-.19" fill="url(#radial-gradient)" stroke-width="0"/>
      <path d="M316.94,185.28c-6.74-.02-6.78,10.39-.03,10.41,6.76.02,6.78-10.39.03-10.41Z" fill="url(#radial-gradient-2)" stroke-width="0"/>
      <path d="M430.35,319.62c-.24-1.11-.77-1.95-1.48-2.55.61-1.02.82-2.35.39-3.94-1.48-5.32-3.12-10.66-6.62-15.06-2.6-3.28-5.64-5.78-7.96-8.97-.99-2.06-2.02-4.1-3.11-6.11-.94-1.71-2.57-2.45-4.23-2.48-2.83-3.46-5.79-6.82-8.97-9.98-5.9-5.9-12.57-11.26-19.96-15.21-.68-.37-1.38-.71-2.08-1.06-2.35-1.59-4.78-3.02-7.31-4.11-3.74-1.6-8.33-2.36-12.94-2.36-1.94-.47-4.08-.38-6.44.01-.73.13-1.34.41-1.86.8-1.7.35-3.33.8-4.82,1.37-2.04.76-3.44,2.97-3.69,5.11-1.12-.22-2.34-.09-3.55.51-2.69,1.36-5.05,3.02-7.29,4.98-1.37,0-2.7.58-3.6,1.89-.32.31-.62.63-.89,1.05-.65.11-1.29.33-1.88.67-1.27.26-2.55.53-3.83.75-4.94.88-5.08,9.25-.03,10.04.84.13,1.64.19,2.4.2.72.9,1.74,1.5,2.87,1.77.49.58,1.06,1.09,1.69,1.46v.38c-.04,2.39,1.71,4.19,3.78,4.89,1.83,3.68,4.03,7.15,6,10.79,3.41,6.32,6.09,12.95,8.05,19.84,3.96,13.86,3.97,27.92,4.15,42.2,0,.58.11,1.12.24,1.59-.6.56-1.09,1.24-1.42,1.98-2.85,3.95,2.73,9.35,7.32,7.15.12-.05.23-.12.35-.17.56-.27,1.02-.68,1.4-1.16,11.34-3.92,22.67-7.82,34.01-11.77,4.98-1.73,9.83-3.58,14.38-6.27,4.43-2.62,9.63-2.59,13.9-5.36.19-.13.36-.25.52-.38,12.01.09,14.44-13.23,12.47-22.51v.02s0,0,0,0ZM373.42,270.04c.06-.49.06-.96,0-1.41.35.11.69.2,1.02.31-.39.32-.74.69-1.04,1.11h0s0,0,0,0ZM391.57,300.82c-.15,0-.28.03-.43.05.18-.53.34-1.06.46-1.6-.01.51-.03,1.03-.03,1.54h0Z" fill="url(#radial-gradient-3)" stroke-width="0"/>
      <path d="M142.39,235.46c-1.07-3.38-5.38-4.64-8.06-3.01-1.68-1.16-3.57-1.98-5.55-2.6-2.78-.85-6.92-.69-9.06-2.81-3.91-4.71-9.71-2.76-8.96,3.66-.13,7.68-2.92,15.3-1.4,23.04-.09,2.83,2.33,6.35,3.85,8.86,2.02,3.34,5.92,2.98,8.17.95,1.01.52,2.01,1.13,3.22,1.26,1.25.13,2.26-.13,3.24-.52,5.48.89,12.57-1.18,15.65-5.89,4.58-7.01,1.19-15.79-1.08-22.95h0s-.02,0-.02,0Z" fill="url(#radial-gradient-4)" stroke-width="0"/>
      <path d="M148.02,193.07c-1.13-1.06-1.93-1.97-2.73-3.27-1.4-2.26-3.4-5.02-5.78-3.4-2.38,1.61-5.96,5-7.87,7.15-1.14,1.27-2.28,2.56-3.2,4-.45.7-.85,1.43-1.13,2.21-.28.79-1.48.94-1.85,1.69-.75,1.52-1.6,2.76-3.05,3.34-1.72.68-3.05,1.62-3.84,3.34-2.3,5.04,3.56,9.56,7.19,7.43.55.47,1.23.85,2.09,1.09,4.74,1.3,11,4.12,14.05-1.41,1.26-2.27,1.85-4.97,2.84-7.36,1.2-2.9,2.63-5.71,4.11-8.48,1.08-2,.93-4.7-.83-6.32Z" fill="url(#radial-gradient-5)" stroke-width="0"/>
      <path d="M328.25,259.51c.94-1.14,2.84-.96,7.22-3.29,4.6-2.46,14.45-1.68,19.11.66,4.65,2.34,8.45,6.64,9.43,11.74.98,5.09-1.8,12.56-6.35,15.12-3.86,2.18-8.99,4.37-13.48,3.19-6.09-1.58-8.49-4.24-10.87-9.06-1.54-3.12-1.1-5.59-.56-8.19.51-2.47,1.58-3.56,1.95-3.97,2.56-2.88,5.87-3.57,9.61-3.36,4.84.26,8.49,2.31,9.84,4.66,3.92,6.83-2.57,10.21-4.79,10.75-5.99,1.47-6.72-4.11-6.2-4.49" fill="none" stroke="#212120" stroke-linecap="round" stroke-miterlimit="10" stroke-width="2.97"/>
      <path d="M364.01,268.61c.29,2.63.39,5.57-.02,8.18-1.04,6.81-4.43,13.35-3.82,20.21.43,4.8,3,9.44,7.02,12.12s8.82,2.86,13.41,1.32c2.82-.95,3.7-.88,6.73-2.67,1.91-1.13,5.1-3.66,6.09-5.66,2.73-5.49,2.29-11.83-2.55-15.62-3.13-2.47-4.85-2.89-7.97-2.92-1.29,0-4.4,1.29-6.8,2.75-2.98,1.78-4.39,3.9-5.33,7.22-.94,3.32.93,6.84,4,8.45,5.28,2.78,11.58-5.23,4.52-7.79" fill="none" stroke="#212120" stroke-linecap="round" stroke-miterlimit="10" stroke-width="2.97"/>
      <path d="M378.23,311.08c7.41-.29,14.67.35,21.36,3.54,2.11,1.01,4.75,3.29,6.06,5.7,2.47,4.6,2.9,8.38.8,13.92-1.85,4.88-11.95,14.11-19.18,14.7-11.15.89-17.08-4.75-18.67-13.26-1.02-5.53,1.03-8.35,3.58-11.24,3.27-3.73,10.87-6.06,16.04-4.44,6.46,2.03,7.25,9.45,5.5,14.16-2.2,5.93-13.25,5.8-11.28-2.96" fill="none" stroke="#212120" stroke-linecap="round" stroke-miterlimit="10" stroke-width="2.97"/>
      <path d="M406.34,334.45c-1.49,2.61-3.34,5.2-4.01,8.13-.25,1.15-.37,2.4.01,3.5s.84,1.43,2.03,1.54c.45-.52,1.6-1.02,2.29-1.11,0,.26-.53.82-.31.68" fill="none" stroke="#212120" stroke-miterlimit="10" stroke-width="2.97"/>
      <path d="M244.99,300.5c-6.2.06-14.64-1.49-18.86-6-.12.19-.13.42-.03.62" fill="none" stroke="#221f1f" stroke-miterlimit="10" stroke-width="2.18"/>
      <path d="M248.11,309.71c-1.02.72-17.32-.72-22.11-2.42-11.72-4.18-18.83-11.63-22.45-16.51" fill="none" stroke="#221f1f" stroke-miterlimit="10" stroke-width="2.18"/>
      <path d="M243.93,332.37c-13.39-1.44-21.74-4.61-31.79-12.88-7.17-5.89-14.06-17.84-20.9-30.88.12.26,0,2.81.11,3.07" fill="none" stroke="#221f1f" stroke-miterlimit="10" stroke-width="2.18"/>
      <path d="M241.03,350.01c-34.44-7.68-45.2-25.93-53.09-45.91" fill="none" stroke="#221f1f" stroke-miterlimit="10" stroke-width="2.18"/>
      <path d="M232.26,360.41c-2.3,5.06-21.42.94-33.93-11.86-8.55-8.76-15.57-22.69-19.87-33.88" fill="none" stroke="#221f1f" stroke-miterlimit="10" stroke-width="2.18"/>
      <path d="M173.89,351.19c-5.65-5.75-10.35-12.6-12.74-24.03" fill="none" stroke="#221f1f" stroke-miterlimit="10" stroke-width="2.18"/>
      <path d="M193.41,360.31c-4.96-3.96-13.52-14.31-16.57-19.85-4.11-7.46-5.34-11.6-6.91-18.69" fill="none" stroke="#221f1f" stroke-miterlimit="10" stroke-width="2.18"/>
      <path d="M169.74,300.94s2.1-4.09,1.85-4.09c-1.63-4.93-2.44-14.13-1.2-20.82" fill="none" stroke="#221f1f" stroke-miterlimit="10" stroke-width="1.98"/>
      <path d="M165.4,305.75c-2.37-11.75-3.12-23.62.69-34.79" fill="none" stroke="#221f1f" stroke-miterlimit="10" stroke-width="1.98"/>
      <path d="M157.22,310.88c-2.27-14.64-1.64-30.24,4.51-43.49" fill="none" stroke="#221f1f" stroke-miterlimit="10" stroke-width="1.98"/>
      <path d="M146.22,315.95c-4.06-14.28-.84-30.81,5.65-44.89-.44.07-2.04.14-2.46.21" fill="none" stroke="#221f1f" stroke-miterlimit="10" stroke-width="1.98"/>
      <path d="M136.85,314.75c-3.51-13,0-27.09,4.83-39.66-.16.73-3.09,1.45-3.25,2.19" fill="none" stroke="#221f1f" stroke-miterlimit="10" stroke-width="1.98"/>
      <path d="M124.95,307.27c-1.35-6.24-1.07-9.95-.39-12.79,2.87-12.24,6.71-16.36,7.95-17.09" fill="none" stroke="#221f1f" stroke-miterlimit="10" stroke-width="1.98"/>
      <path d="M115.19,292.81c.1-4.45,3.97-11.7,7-15.44" fill="none" stroke="#221f1f" stroke-miterlimit="10" stroke-width="1.98"/>
      <path d="M171.1,293.08c.46.78,1.37,1.29,2.28,1.23-.08.09-.23.13-.35.08" fill="none" stroke="#000" stroke-miterlimit="10" stroke-width=".99"/>
      <path d="M170.67,294.63c.13,1.41.01,2.86-.34,4.24" fill="none" stroke="#000" stroke-miterlimit="10" stroke-width=".99"/>
      <path d="M165.14,301.86c-.02,1.01,1.17,1.85,2.11,1.49.04.13-.06.28-.2.3" fill="none" stroke="#000" stroke-miterlimit="10" stroke-width=".99"/>
      <path d="M164.2,302.33c.17.42.21.9.13,1.34-.07.39-.25.77-.43,1.13-.2.4-.39.81-.59,1.22-.03.06-.07.14-.15.14s-.07-.14,0-.12" fill="none" stroke="#000" stroke-miterlimit="10" stroke-width=".99"/>
      <path d="M157,307.11c-.04.34.16.67.43.87s.61.31.93.4c.53.15,1.04.31,1.56.45" fill="none" stroke="#000" stroke-miterlimit="10" stroke-width=".99"/>
      <path d="M156.26,307.19c.19,1.37-.27,2.81-1.19,3.85" fill="none" stroke="#000" stroke-miterlimit="10" stroke-width=".99"/>
      <path d="M148.36,313.19c-.07.05.13.09.11,0s-.14-.11-.23-.11c-1.23.02-2.44-.76-2.93-1.88.14.42-.44,1.32-.65,1.72-.59,1.16-1.5,2.17-2.6,2.88" fill="none" stroke="#000" stroke-miterlimit="10" stroke-width=".99"/>
      <path d="M136.39,312.83c.33,1.16,2.25,2.08,3.45,2.26" fill="none" stroke="#000" stroke-miterlimit="10" stroke-width=".99"/>
      <path d="M135.92,312.48c-.13.33-.08.69-.18,1.01-.06.22-.18.41-.31.61-.21.34-.42.7-.63,1.03-.38.61-.81,1.28-1.49,1.51" fill="none" stroke="#000" stroke-miterlimit="10" stroke-width=".99"/>
      <path d="M123.78,300.35l-.66.98c-.36.53-.74,1.07-1.3,1.36-.2-.17-.39-.34-.58-.5" fill="none" stroke="#000" stroke-miterlimit="10" stroke-width=".99"/>
      <path d="M116.32,286.56c-.35.34-.81.7-1.28.54-.46-.15-.85-.75-1.28-.51" fill="none" stroke="#000" stroke-miterlimit="10" stroke-width=".99"/>
      <path d="M242.06,297.59s-.03.04-.05.06c-.54.72-.74,1.81-1.59,2.1,0,.14-.02.27-.03.4" fill="none" stroke="#000" stroke-miterlimit="10" stroke-width=".99"/>
      <path d="M243.85,309.23c.81-.42,1.56-.97,2.22-1.62.32-.32.62-.67.71-1.1s-.14-.95-.55-1.07" fill="none" stroke="#000" stroke-miterlimit="10" stroke-width=".99"/>
      <path d="M242.71,301.1c.46.22.92.45,1.27.82s1.52.58,1.35,1.04" fill="none" stroke="#000" stroke-miterlimit="10" stroke-width=".99"/>
      <path d="M242.51,331.7c.76.3,1.66-.03,2.25-.58s.94-1.32,1.24-2.07" fill="none" stroke="#000" stroke-miterlimit="10" stroke-width=".99"/>
      <path d="M244.35,310c.76.69,1.53,1.43,1.98,2.35s1.63,2.66,1.08,3.55" fill="none" stroke="#000" stroke-miterlimit="10" stroke-width=".99"/>
      <path d="M236.53,348.23c.7-.04,1.4-.14,1.98-.52s1.93-.51,1.74-1.16" fill="none" stroke="#000" stroke-miterlimit="10" stroke-width=".99"/>
      <path d="M242.21,332.21l.92,1.28c.24.33.47.65.61,1.03.44,1.18-.14,2.48-.75,3.58" fill="none" stroke="#000" stroke-miterlimit="10" stroke-width=".99"/>
      <path d="M236.09,349.24c1.18,1.02,1.48,2.9.69,4.24" fill="none" stroke="#000" stroke-miterlimit="10" stroke-width=".99"/>
      <path d="M224.8,362.71c.55,1.26.57,2.74.04,4.01" fill="none" stroke="#000" stroke-miterlimit="10" stroke-width=".99"/>
      <path d="M325.77,352.26c-.08-.05-.19.06-.18.16s.09.17.18.23c.54.4,1.1.77,1.46,1.33s1.78,1.38,1.29,1.82" fill="none" stroke="#000" stroke-miterlimit="10" stroke-width=".99"/>
      <path d="M323.98,365.72c-.13-.13-.38-.07-.43.09,1.26.44,1.95,2.05,1.41,3.26" fill="none" stroke="#000" stroke-miterlimit="10" stroke-width=".99"/>
      <path d="M326.24,331.52c0,.21.39.18.45-.03s-.08-.4-.22-.56c-.76-.88-2.8-1.32-2.49-2.6.13-.51.89-.97,1.14-1.48.35-.64.45-1.43.57-2.13-.13-.04-.24-.08-.37-.14" fill="none" stroke="#000" stroke-miterlimit="10" stroke-width=".99"/>
      <path d="M314.23,302.26c.59,0,1.2.04,1.73.34s1.69-.02,1.56.57" fill="none" stroke="#000" stroke-miterlimit="10" stroke-width=".99"/>
      <path d="M313.61,301.37c.49-.2.82-.67.97-1.16s.15-1.03.14-1.55c0-.49,0-.98-.17-1.45" fill="none" stroke="#000" stroke-miterlimit="10" stroke-width=".99"/>
      <path d="M143.94,243.3c-3.04-.07-6.11-.12-9.09.49-2.98.61-5.9,1.91-7.92,4.16-2.02,2.25-3.93,6.06-2.01,8.4,2.26,2.75,5.37,3.66,8.2,2.3,1.81-.87,2.45-1.41,3.24-2.95.66-1.31.63-3.16.25-4.59-.42-1.57-1.86-2.47-3.97-1.87-1.68.49-2.79,3.93-.15,4.86" fill="none" stroke="#000" stroke-linecap="round" stroke-miterlimit="10" stroke-width=".99"/>
      <path d="M143.63,242.28c-3.05-.15-6.11,0-9.12.47-1.77.26-3.57.64-5.35.43-1.11-.13-2.22-.53-3.1-1.22-1.61-1.29-1.12-3.56.13-4.93.72-.8,1.84-1.14,2.89-1.42,1.8-.49,3.74,2.13,2.81,3.68-.61,1.02-2.19,1.34-3.14.59" fill="none" stroke="#000" stroke-linecap="round" stroke-miterlimit="10" stroke-width=".99"/>
      <path d="M129.86,245.62c-3.5,1.83-6.32,3.96-9.37,6.43-1.64,1.33-6.09,1.26-7.12-1.26-1.93-4.69,2.78-6.77,5.31-6.82,1.44-.03,3.12,2.49,1.79,4.06-.89,1.05-2.54.89-3.75.64" fill="none" stroke="#000" stroke-linecap="round" stroke-miterlimit="10" stroke-width=".99"/>
      <path d="M502.62,132.41c.45-.77.72-1.65.69-2.53-.04-1.52-.32-2.93-.8-4.31.01-.18.03-.36.03-.54.01-.58-.06-1.15-.2-1.71-.06-.8-.13-1.6-.19-2.41-.13-1.35-.65-2.43-1.4-3.24-.07-.56-.15-1.12-.22-1.68-.18-1.28-.72-2.31-1.47-3.1-.35-1.63-.77-3.24-1.3-4.87-.27-.83-.69-1.49-1.18-2.03,0-.27-.03-.53-.08-.78-.04-.32-.08-.61-.13-.93-.16-.68-.46-1.27-.93-1.77-.23-.4-.54-.7-.94-.94-.51-.46-1.1-.77-1.78-.93-.46-.06-.93-.13-1.39-.19-.39,0-.76.05-1.12.13-.83.04-1.62.26-2.36.68-.36.27-.71.54-1.07.81-.58.58-1,1.26-1.26,2.02-.26.38-.49.79-.64,1.21-.84,1.54-1.74,3.05-2.69,4.51-1.25.53-2.35,1.55-3.01,3.15-.01.03-.03.07-.04.11-.46.23-.92.54-1.32.95-1.18,1.18-2.35,2.38-3.53,3.56-.5.5-.85,1.01-1.12,1.55-3.3,3.63-6.39,7.44-9.27,11.41-2.31,2.7-4.34,5.62-6.06,8.73-.82,1.14-1.6,2.31-2.33,3.52-.7,1.13-.88,2.28-.71,3.31-.02.05-.04.09-.06.15-.14.34-.28.67-.42,1.01-.91,2.1-.47,4.12.61,5.59-.14,2.65,1.5,4.21,3.52,4.68-.3,2.59-.6,5.18-.9,7.77-.28,2.54,2.2,4.84,4.54,5.12,2.78.34,4.75-1.25,5.76-3.72.2-.5.34-.99.44-1.5.12-.22.22-.45.32-.69.56.14,1.12.19,1.7.16.35.15.7.25,1.08.33,1.41,1.4,3.88,1.66,5.96.85.93,1.95,2.75,3.12,4.76,3.08,1.39.55,2.94.61,4.23.02.94-.2,1.85-.65,2.62-1.34.16-.15.31-.31.46-.44,1.19-.12,2.34-.62,3.19-1.6.56-.41,1.07-.96,1.43-1.71.44-.89.88-1.75,1.32-2.64.23-.19.46-.39.69-.64.26-.31.52-.59.74-.89.86-.6,1.56-1.45,1.94-2.57.51-1.51.83-2.87,1.05-4.44.04-.33.06-.64.06-.95.5-.54.89-1.2,1.11-2.04,1.05-4.05,1.76-8.11,2.26-12.26.15-1.22-.13-2.23-.65-3.01.04-.69.06-1.37.08-2.06v.03s0,0,0,0Z" fill="url(#radial-gradient-6)" stroke-width="0"/>
      <path d="M441.73,123.05c.22-3.09.19-6.22-.11-9.36-.06-.64-.24-1.21-.46-1.74-.37-2.87-1.11-5.6-2.59-7.35-.07-.28-.17-.55-.26-.83.02-.24.04-.48.07-.72.91-6.41-8.27-9.48-10.1-2.8-.32,1.16-.53,2.31-.63,3.47-1.15.31-2.27,1.01-3.12,2.15-1.43,1.92-2.44,4.12-3.5,6.27-.89.57-1.62,1.43-2.1,2.59-1.51,3.72-4.97,6.36-6.87,9.87-1.34,2.48-2.76,4.69-3.16,7.42-.74,1.09-.71,2.85-.51,4.11-.09-.54-.18-1.47-.11-2.1.12-1.1.03.08,0,0,.23-.83.09-2.14-.32-3.12-.88-2.1-1.63-3-3.58-4.6-1.78-1.47-3.6-3.53-5.69-4.51-1.69-.78-3.24-1.41-4.93-2.09-2.06-.81-4.14-.85-6.34-1.08-.46-.04-1.23-.12-1.52.16-.3-.19-.77-.23-1.11-.34-.63-.33-1.41-.16-2.14-.14-.09,0-.19.02-.28.04-.19-.02-.38-.04-.57-.04h-.17c-.73-.03-1.39.12-2.03.44-.65.21-1.66-.08-2.13.41-.52.46-2.94,0-3.15.64-.33.62-.04,1.84.95,3.23.06.45,1.22,1.38,1.29,1.85.25.89.7,1.65,1.35,2.3l.12.08c.31.35.64.65,1.06.91,3,4.66,5.77,9.44,8.34,14.35.22.42.5.76.8,1.07.16.53.33,1.08.5,1.61h0c.15.42.35.83.57,1.23.21.43.48.84.84,1.18.04.04.08.06.13.11.71.76,1.89,2.09,2.8,2.23.36.08.79.01,1.17,0,.46-.06.54-.93,1-.98.89-.24,1.66-.7,2.32-1.34.27-.35.55-.7.82-1.05.38-.65.61-1.35.69-2.08.37-.89.63-1.82.72-2.7.76.2,1.54.25,2.29.15,3.63.68,6.86-2.05,6.35-5.65.12.53.45.79.44,1.38,0,.38.13,1.24.38,1.59,1.72,2.32,5.77.43,8.41,1.77,1.77.64,3.6,1.38,5.38,1.79,1.75.4,3.51.44,5.27.26.74.38.26.64.3.64,1.71.37,2.84-.34,4.55-.68,2.08-.25,3.87-1.07,4.92-3.27l.64-1.37c.03-.07.05-.16.09-.24.54-.84,1.94-2.61,2.3-3.88.76-2.81.76-5.97,1.1-8.85.11-.95-.06-1.78-.44-2.48v.04s-.02.04-.02.04Z" fill="url(#radial-gradient-7)" stroke-width="0"/>
      <path d="M537.97,301.17c-.45-1.84-.4-3.38-.31-5.24.05-1.25-.4-2.34-1.15-3.2.64-1.02.86-2.39.39-4.02-1.37-4.65-3.24-9.07-5.65-13.29-.41-.71-.89-1.27-1.4-1.68-2.58-3.65-5.94-6.6-10.31-8.58-.99-.45-2.21-.64-3.38-.53-3.29-.32-6.66,2.86-5.74,6.58.2.8.36,1.6.52,2.41-.8.61-1.41,1.54-1.72,2.85-.34,1.51-.66,2.99-.98,4.45-.32,1.27-.68,2.51-1.07,3.77-2.65,1.55-4.29,2.2-4.66,4.72-.94-.35-1.58.9-2.68.7-2.7-.5-4.61.68-6.91.89-1.15.11-3.82-.98-3.7,0-.92-.8.26,1.07-.9.5-5.28-2.63-5.94,4.61-9.64,7.33-2.03,1.49-3.85,2.58-5.24,4.73-.7,1.07-1.32,2.09-1.97,3.06-2.09.51-3.97,2.12-4.26,4.82-.09.93-.2,1.86-.31,2.79-.04.37-.02.71.03,1.04-.58,5.55-1.73,10.8-1.08,16.6.35,3.16.69,6.36,1.43,9.46.82,3.45,2.58,6.47,3.57,9.84,1.68,5.66,8.66,4.38,10.1-.42.92-.58,1.7-1.45,2.19-2.65.61-1.49,1.29-2.96,1.99-4.4.66-.4,1.27-.96,1.77-1.75,3.34-5.22,6.6-10.53,9.46-16.02.93-1.76,1.4-3.23,1.52-4.57.69-.71,1.18-1.6,1.45-2.54.46-1.65.62-3.42.84-5.11.14-1.11-.26-2.15-.95-3.02-.05-.95-.14-1.89-.3-2.82,2.07,3.4,4.13,6.82,6.45,10.03,5.54,7.67,13.71,12.63,19.57,19.89,2.77,3.42,9.36.7,8.96-3.66-.49-5.28-.61-11.54.8-16.7,1.05-3.87,1.33-7.18,1.22-10.86,1.54-1.11,2.54-2.98,2.06-5.36h-.03s0,0,0,0Z" fill="url(#radial-gradient-8)" stroke-width="0"/>
      <path d="M364.46,206.33c8.96-1.54,17.76-3.91,26.26-7.08,2.32-.87,4.94-2.14,5.43-4.56" fill="none" stroke="#000" stroke-miterlimit="10" stroke-width=".25"/>
      <path d="M358.38,219.69c14.81-3.24,35.47-7.55,50.3-10.79,2.39-.53,7.9-2.3,9.95-3.65" fill="none" stroke="#000" stroke-miterlimit="10" stroke-width=".25"/>
      <path d="M368.69,225.84c23.94-1.9,47.77-5.22,71.32-9.89" fill="none" stroke="#000" stroke-miterlimit="10" stroke-width=".25"/>
      <path d="M378.35,236.67c26.08-.73,52.48-2.41,77.67-9.73" fill="none" stroke="#000" stroke-miterlimit="10" stroke-width=".25"/>
      <path d="M400.32,246.47c14.66-.26,29.3-.96,43.92-2.15,9.54-.77,19.13-1.75,28.26-4.61" fill="none" stroke="#000" stroke-miterlimit="10" stroke-width=".25"/>
      <path d="M420.92,262.91l64.48-5.57" fill="none" stroke="#000" stroke-miterlimit="10" stroke-width=".25"/>
      <path d="M431.66,276.45c19.85-.94,39.73-.97,59.54-2.31" fill="none" stroke="#000" stroke-miterlimit="10" stroke-width=".25"/>
      <path d="M440.17,293.99c16.05-.03,32.36-1.36,48.07-4.64" fill="none" stroke="#000" stroke-miterlimit="10" stroke-width=".25"/>
      <path d="M446.82,306.91c7.24-.75,14.48-1.5,21.71-2.24" fill="none" stroke="#000" stroke-miterlimit="10" stroke-width=".25"/>
      <path d="M448.61,313.81c3.33.02,6.68-.18,9.98-.6" fill="none" stroke="#000" stroke-miterlimit="10" stroke-width=".25"/>
      <path d="M278.43,289.78c9.98,6.41,28.95,13.59,40.31,16.77-.52,0-6.1-1.83-6.61-1.86" fill="none" stroke="#000" stroke-miterlimit="10" stroke-width=".25"/>
      <path d="M269.16,292.46c3.33,4.23,7.88,7.49,12.02,10.88,4.69,3.82,9.38,7.63,14.15,11.35,8.68,6.74,20.63,16.1,31.36,19.31-1.38-.26-5.62-2.46-7-2.73" fill="none" stroke="#000" stroke-miterlimit="10" stroke-width=".25"/>
      <path d="M262.25,295.47c14.72,26.46,37.72,49.42,67.24,57.43" fill="none" stroke="#000" stroke-miterlimit="10" stroke-width=".25"/>
      <path d="M265.31,323.4c17.91,18.32,36.72,37.11,61.73,46.19" fill="none" stroke="#000" stroke-miterlimit="10" stroke-width=".25"/>
      <path d="M262.91,343.68c15.06,12.66,30.9,24.8,48.96,32.96" fill="none" stroke="#000" stroke-miterlimit="10" stroke-width=".25"/>
      <path d="M252.24,352.74c7.86,10.79,19.38,18.1,30.89,24.56" fill="none" stroke="#000" stroke-miterlimit="10" stroke-width=".25"/>
      <path d="M252.45,365.44c2.39,5.36,6.57,8.49,10.07,12.69" fill="none" stroke="#000" stroke-miterlimit="10" stroke-width=".25"/>
      <path d="M245.75,331.88c-5.9-10.97-10.53-22.61-13.76-34.62" fill="none" stroke="#000" stroke-miterlimit="10" stroke-width=".25"/>
      <path d="M237.76,354.6c-2.09-2.04-3.23-4.82-4.27-7.54-6.19-15.89-12.07-35.6-12.99-52.62" fill="none" stroke="#000" stroke-miterlimit="10" stroke-width=".25"/>
      <path d="M230.75,361.72c-9.55-21.43-16.83-44.82-20.02-68.07" fill="none" stroke="#000" stroke-miterlimit="10" stroke-width=".25"/>
      <path d="M224.22,367.51c-11.02-19.22-18.98-41.19-20.6-63.36-.33-4.37-.74-8.98-.07-13.34" fill="none" stroke="#000" stroke-miterlimit="10" stroke-width=".25"/>
      <path d="M212.4,367.74c-11.42-19.77-19.73-41.28-24.55-63.55.4,1.48.8,2.96,1.2,4.42" fill="none" stroke="#000" stroke-miterlimit="10" stroke-width=".25"/>
      <path d="M202.58,364.22c-10.57-12.32-24.08-28.29-25.98-44.61" fill="none" stroke="#000" stroke-miterlimit="10" stroke-width=".25"/>
      <path d="M184.52,358.67c-7.7-10.62-13.88-22.33-18.27-34.67.33,1.02.64,2.05.97,3.07" fill="none" stroke="#000" stroke-miterlimit="10" stroke-width=".25"/>
      <path d="M168.21,348.99c-4.93-5.88-7.59-13.25-9.55-20.55" fill="none" stroke="#000" stroke-miterlimit="10" stroke-width=".25"/>
      <path d="M178.33,280.48c-8.07,7.14-13.8,16.83-16.16,27.32" fill="none" stroke="#000" stroke-miterlimit="10" stroke-width=".25"/>
      <path d="M169.64,279.83c-10.43,11-21.34,21.94-27.6,35.97" fill="none" stroke="#000" stroke-miterlimit="10" stroke-width=".25"/>
      <path d="M167.68,275.14c-9.98,9.97-26.78,25.61-32.24,38.98" fill="none" stroke="#000" stroke-miterlimit="10" stroke-width=".25"/>
      <path d="M152.16,274.06c-8.3,10.67-18.54,24.84-24.34,37.1" fill="none" stroke="#000" stroke-miterlimit="10" stroke-width=".25"/>
      <path d="M141.24,275.64c-5.41,5.84-10.02,12.41-13.64,19.5-2.26,4.42-4.17,9.23-3.83,14.17.02.3.12.65.41.7s.2-.6,0-.39" fill="none" stroke="#000" stroke-miterlimit="10" stroke-width=".25"/>
      <path d="M116.28,293.41c5.05-5.13,8.41-10.38,14.59-14.09-.75-.16-1.46-.6-1.92-1.2" fill="none" stroke="#000" stroke-miterlimit="10" stroke-width=".25"/>
      <g>
        <path d="M39.14,523.74c.99.41,1.09,1.27,1.09,2.15-.54-.04-1.32.29-1.1-.81.08-.43.01-.9.01-1.34Z" fill="#fff" stroke-width="0"/>
        <path d="M424.88,149.52c-3.36.33-8.38-1.54-11.79.27,5.58,4.57,17.66,2.62,24.44,2.1,1.2-.09,7.1.65,5-2.08-1.44-1.86-11.42,0-13.63.14-1.07-6.4,6.93-6.53,11.72-5.51,6.57,1.4,11.99,6.85,14.59,12.85,5.15,11.78,1.7,28.49-7.9,37.17-17.7-10.7-36.19-19.52-57.01-22.61-6.43-19.82,19.5-41.95,34.98-22.97-.13.22-.25.44-.39.67h0s0-.02,0-.02Z" fill="url(#radial-gradient-9)" stroke-width="0"/>
        <path d="M431.89,336.61c7.52-21.09-9.07-46.95-23.22-61.47-16.08-16.49-39.22-30.83-63.3-28.16-2.9.33-10.24,7.44-12.72,5.44-3.21-2.59-1.72-14.47.31-16.16,9.15-7.59,28.55-3.04,38.9.03,21.93,6.48,42.18,21.62,56.15,39.47,7.9,10.12,14.08,21.72,16.91,34.28,1.77,7.87,2.47,33.09-13.04,26.57h0s0,0,0,0Z" fill="url(#radial-gradient-10)" stroke-width="0"/>
        <path d="M490.38,231c9.46-3.52,11.03-6.07,10.78-17.47,6.39.86,10.89-1.55,17.11-2,5.69-1.05,10.12-2.2,15.42-3.55,19.79,11.76,14.14,37.46-1.65,49.8-6.01,4.7-20.28,9.86-25.08,1.48-2.66-4.64-4.18-9.91-7.02-14.57-2.9-4.76-6.27-9.2-9.57-13.69h.02s0,0,0,0Z" fill="url(#radial-gradient-11)" stroke-width="0"/>
        <path d="M337.99,377.73c-4.4,3.42-15.42,1.67-12.91-3.3,7.66-15.16,6.47-42.52,2.14-57.11-2.82-9.47-6.82-18.44-13.28-26.03-5.93-6.97-12.67-7.57-20.28-9.96-2.74-.86-5.61-2.14-1.39-7.94,5.72-7.88,21.95-.5,27.59,4.82,9.62,9.06,17.23,20.87,21.22,33.25,4.31,13.37,7.13,29,5.96,43.07-.46,5.63-3.27,18.72-9.04,23.21v-.02s0,0,0,0Z" fill="url(#radial-gradient-12)" stroke-width="0"/>
        <path d="M215.05,369.02c16.47,4.37,27.93-20.81,31.52-32.6,2.39-7.81,4.09-15.14,3.32-23.3-.88-9.31-4.55-15.48-12.27-20.44,1.1-6.25,12.78-6.39,17.02-3.96,4.59,2.64,7.1,7.79,8.64,12.62,3.91,12.34,1.87,27.31-1.54,39.59-3.21,11.53-9.64,25.38-18.86,33.41-4.43,3.86-10.36,7.17-16.41,6.98-8.64-.58-14.19-6.44-11.42-12.31h0s0,0,0,0Z" fill="url(#radial-gradient-13)" stroke-width="0"/>
        <path d="M128.5,315.55c6.49,1.92,12.21,2.82,18.98.66,5.62-1.81,10.68-5.05,15.4-8.58,10.52-7.89,13.74-18.08,14.01-30.04,9.91-6.61,17.84,6.5,13.89,17.2-2.37,9.27-10.15,17.8-17.4,23.71-7.29,5.94-17.25,11.49-26.6,13.27-12.7,2.04-23.72-5.64-18.26-16.23h-.02s0,0,0,0Z" fill="url(#radial-gradient-14)" stroke-width="0"/>
        <path d="M369.99,156.86c3.3,1.91,14.42,2.25,16.93-1.78,1.04-1.68,1.13-1.84-.89-1.98-3.15-.22-6.71,3.14-10.15,2.96,2.66-4.34,8.21-9.24,13.68-6.97,1.88,1.25,2.98-1.12,1.92,5.46-.19,1.2-1.58,4.02-2.31,7.92-1,5.11-.74,8.63-1.9,8.96-.78.21-3.61-.39-3.75-.4-2.19-.22-4.17-.19-6.7.04-3.2.3-2.7-.13-5.48.29-3.14.48-5.89,4.94-7.99,2.77-3.45-3.58-8.65-7.53-12.98-5.41-.07.03-.12.06-.15.04-.35-.21-1.66-11.66,4.31-16.22,2.38-1.82,8.2-2.41,12.21-1.6,1.89.38,6.27,4.01,7.09,4.76-.97.43-2.62.62-3.89,1.18h0s.03-.02.03-.02Z" fill="url(#radial-gradient-15)" stroke-width="0"/>
        <path d="M106.1,253.76c4.61,12.05,19.81,12.63,30.72,8.78,3.04-1.08,5.7-2.99,8.24-4.99,1.7-1.35,4.1-5.25,5.86-6.02,5.37-2.34,8,9.01,6.53,12.18-5.18,11.19-28.4,14.32-38.93,13.56-6.09-.43-13.59-3.38-17.05-8.91-2.52-4.05-1.26-13.35,4.65-14.6h0s0,0,0,0Z" fill="url(#radial-gradient-16)" stroke-width="0"/>
        <path d="M470.96,186.58c-13.68-.12-12.88-21.71.81-21.24,13.73.48,12.87,21.37-.81,21.24Z" fill="url(#radial-gradient-17)" stroke-width="0"/>
        <path d="M334.09,196.23c13.77-.1,14.2,21.02.31,21.11-13.56.09-13.93-21.02-.31-21.11h0Z" fill="url(#radial-gradient-18)" stroke="url(#radial-gradient-19)" stroke-miterlimit="10" stroke-width=".99"/>
        <path d="M315.14,201.17c-13.56.07-13.92-20.98-.19-21.06,13.53-.08,13.91,20.99.19,21.06Z" fill="url(#radial-gradient-20)" stroke="url(#radial-gradient-21)" stroke-miterlimit="10" stroke-width=".99"/>
        <path d="M321.91,202.8c-1.16,4.89.02,9.06,3.05,12.56-3.3,9.52-16.32,11.18-20.61,1.3-1.73-3.99-1.25-10.33,2.61-13.13,2.55-1.86,2.49-.91,5.62-.47,3.23.45,6.13-.28,9.33-.27h0Z" fill="url(#radial-gradient-22)" stroke="url(#radial-gradient-23)" stroke-miterlimit="10" stroke-width=".99"/>
        <path d="M484.34,186.31c13.32.03,13.81,20,.94,20.94-14.05,1.03-15.21-20.98-.94-20.94h0Z" fill="url(#radial-gradient-24)" stroke-width="0"/>
        <path d="M506.54,211.93c-13.02.09-13.8-19.47-1.11-20.85,14.1-1.52,15.47,20.75,1.11,20.85Z" fill="url(#radial-gradient-25)" stroke-width="0"/>
        <path d="M483.97,183.86c.02-6.08-.34-12.27,6.18-15.06,5.56-2.39,12.21.15,14.44,5.8,1.95,4.98-.52,11.65-5.69,13.74-5.19,2.1-9.26-4.16-14.93-4.49h0Z" fill="url(#radial-gradient-26)" stroke-width="0"/>
        <path d="M347.94,185.65c.76,12.31-21.64,12.52-21.24-.87.41-13.57,21.29-12.73,21.24.87Z" fill="url(#radial-gradient-27)" stroke="url(#radial-gradient-28)" stroke-miterlimit="10" stroke-width=".99"/>
        <path d="M319.47,225.21c1.13,5.43,5.46,10.79.69,15.42-4.28,4.16-11.23,3.83-15.12-.62-3.21-3.66-3.98-10.85-.23-14.56,2.53-2.5,2.75-.95,6-.15,3.09.77,5.59-.1,8.65-.1h0s0,0,0,0Z" fill="url(#radial-gradient-29)" stroke="url(#radial-gradient-30)" stroke-miterlimit="10" stroke-width=".99"/>
        <path d="M459.67,181.64c3.23,5.1,7.5,7.86,13.6,8.16-1.51,4.22-2.5,8.38-.03,12.77-3.25,1-5.69,2.08-8.56,3.9-4.83-3.49-9.71-7-14.84-10.71,5.33-4.7,7.44-7.37,9.82-14.11h0s0,0,0,0Z" fill="url(#radial-gradient-31)" stroke-width="0"/>
        <path d="M499.09,218.88c-.21,4.39-4.55,10.59-9.69,9.75-3.23-.52-10.66-8.48-10.89-11.54-.9-11.59,21.18-11.32,20.58,1.78h0Z" fill="url(#radial-gradient-32)" stroke-width="0"/>
        <path d="M520.14,202.32c-1.49-5-4.01-12.37,1.11-16.33,3.63-2.82,9.46-1.96,12.75.94,3.56,3.16,4.5,8.24,2.04,12.31-3.75,6.2-9.89,3.1-15.89,3.09h0Z" fill="url(#radial-gradient-33)" stroke-width="0"/>
        <path d="M113.4,209.49c5.23,5.45,14.63,8.6,21.57,11.32,2.59,1,9.24,2.47,10.68,4.72,1.8,2.82-2.17,7.58-5.01,8.24-5.77,1.33-17.98-6.52-23.02-8.86-7.92-3.24-13.76-11.06-4.22-15.41h0s0,0,0,0Z" fill="url(#radial-gradient-34)" stroke-width="0"/>
        <path d="M327.9,217.72c5.72,3.18,12.01-1.04,14.88,6.15,2.91,7.3-2.97,7.06-7.77,10.49-2.6,1.86-2.75,3.11-5.83,2.4-1.9-.44-4.25-2.77-5.25-4.34-3.63-5.66-.1-10.67,3.99-14.7h0s0,0,0,0Z" fill="url(#radial-gradient-35)" stroke="url(#radial-gradient-36)" stroke-miterlimit="10" stroke-width=".99"/>
        <path d="M355.91,190.17c1.03,3.6,3.06,6.71,7.76,7.46-.76,3.28-1.98,9.91-5.18,11.73-3.18,1.81-8.49-.14-10.61-2.75-2.02-2.49-2.99-8.19-1.89-11.17,1.75-4.74,5.43-5.29,9.92-5.27h0Z" fill="url(#radial-gradient-37)" stroke="url(#radial-gradient-38)" stroke-miterlimit="10" stroke-width=".99"/>
        <path d="M514.44,191.11c-1.32-5.17-4.45-6.68-9.12-7.71,0-3.83-.6-9.09,2.6-11.71,2.5-2.04,7.28-3.53,10.32-2.69,3.94,1.09,11.59,8.38,9.08,13.06-2.3.55-9.44,3.32-12.88,9.06h0Z" fill="url(#radial-gradient-39)" stroke-width="0"/>
        <path d="M347.96,209.66c3.14,2.31,6.56,2.47,10.28,2.27-1.5,4.05-6.44,19.01-11.76,17.67-.8-.98-2.26-8.42-2.22-10.08.1-3.3,2.44-6.86,3.69-9.85h0,0Z" fill="url(#radial-gradient-40)" stroke="url(#radial-gradient-41)" stroke-miterlimit="10" stroke-width=".99"/>
        <path d="M328.78,240.39c-.4,5.62.09,8.64,2.13,13.95-1.9,1.53-4.17,3.37-6.36,5.16-8.04-4.27-6.43-22.18,4.23-19.11h0Z" fill="url(#radial-gradient-42)" stroke="url(#radial-gradient-43)" stroke-miterlimit="10" stroke-width=".99"/>
        <path d="M479.8,209.04c-1.33,2.35-2.55,4.52-3.92,6.98-2.96-2.5-5.94-5.04-9.14-7.76,4.86-5.03,8.41-2.61,13.06.78Z" fill="url(#radial-gradient-44)" stroke-width="0"/>
        <path d="M361.74,174.85c-2.16,2.78-2.63,3.4-4.11,6.38-.91,1.81-4.58,3.42-8.44-.77-3.82-4.17-1.12-9.18,2.19-11.46,4.4-3.04,11.89,3.47,10.37,5.86h0Z" fill="url(#radial-gradient-45)" stroke="url(#radial-gradient-46)" stroke-miterlimit="10" stroke-width=".99"/>
        <path d="M158.94,187.41c-1.75,2.06-4.29,4.41-5.97,6.37-2.7-3.39-7.24-8.46-10.18-11.65,5.12.1,12.21,2.14,16.16,5.29h0Z" fill="url(#radial-gradient-47)" stroke-width="0"/>
        <path d="M512.33,191.4c-4.03-1.35-9.57-.64-11.69-1.71,6.29-10.63,11.74-7.61,14.29-.95,2.19,5.72-.96,3.21-2.61,2.65h0s0,0,0,0Z" fill="url(#radial-gradient-48)" stroke-width="0"/>
        <path d="M531.24,206.9c-3.54,3.07-14.29,5.28-17.39,3.73,1.57-6.86,14.56-10.45,17.39-3.73Z" fill="url(#radial-gradient-49)" stroke-width="0"/>
        <path d="M326.66,197.54c-.24-1.11-.4-5.08.56-5.12.16,0,3.18,2.54,3.16,2.56-.35.39-3.2,2.04-3.72,2.55h0s0,0,0,0Z" fill="url(#radial-gradient-50)" stroke-width="0"/>
        <path d="M506.58,270.47c-.03-.53-.14-1.02-.27-1.48-.18-1-.42-1.98-.83-3.01-.04-.11-.08-.19-.13-.3-.16-.67-.3-1.32-.45-1.98-.16-.77-.33-1.53-.53-2.3-.36-1.4-1.12-2.37-2.05-2.98-.06-.24-.15-.46-.21-.7,0-.21-.02-.42-.05-.64,0-.55-.12-1.14-.33-1.77-1.61-4.55-3.66-8.73-6.47-12.69-.49-.67-1.02-1.19-1.64-1.55-.25-.37-.5-.74-.75-1.11-.99-1.95-2.11-3.8-3.42-5.6-.58-.8-1.27-1.38-1.98-1.78-.35-.52-.68-1.03-1.02-1.55-.58-.9-1.31-1.51-2.08-1.92-.23-.51-.54-.95-.92-1.31-.36-.82-.73-1.64-1.15-2.45-.8-1.55-2.36-2.32-4-2.44-.19-.31-.4-.6-.64-.91h0c-.41-.87-.93-1.49-1.52-1.93-.65-2.33-2.37-3.46-4.21-3.64-1.42-1.34-2.89-2.61-4.42-3.83-.35-.37-.71-.72-1.11-1.07-.11-.09-.21-.17-.32-.25-.69-.63-1.42-1.26-2.23-1.86-.53-.4-1.06-.64-1.57-.79-.15-.11-.3-.21-.44-.33-.56-.56-1.15-1.11-1.77-1.63-.53-.43-1.12-.74-1.74-.96-.61-.56-1.3-1.08-2.02-1.56-.62-.63-1.35-1.19-2.13-1.7-.24-.2-.49-.4-.72-.59-1.22-1.43-2.68-2.65-4.4-3.74-.18-.12-.38-.2-.57-.28-3.58-2.79-7.32-5.33-11.79-7.08-10.31-4.04-19.75-9.56-30.42-12.91-8.73-2.73-18.55-6.2-27.6-3.86-2.22,0-4.45.39-6.96.66-4.6.49-8.44,3.53-10.96,7.27-2.39,3.55-3.91,8.96.62,11.63,3.51,2.07,8-.58,11.03-2.94.71-.04,1.41-.15,2.1-.32.62-.15,1.21-.3,1.78-.38.33.26.68.5,1.06.67,1.54,1.1,3.42.97,4.98.09.14.03.27.05.41.08,1.2.25,3.24.38,4.2,1.05,1.59,1.11,3.17,1.15,4.46.56.56.17,1.11.32,1.67.5.82.74,1.95,1.21,3.4,1.2h.22c.61.21,1.22.4,1.84.63,1.1.4,2.1.42,2.94.19,2.3.73,4.51,1.8,6.74,2.8,3.99,1.76,8,3.47,11.97,5.28h0c.26.46.62.9,1.12,1.3.88.69,1.75,1.25,2.64,1.71.24.2.51.41.82.63,2.2,1.6,5.01,1.61,7.2,3.09,1.22.82,2.43,1.03,3.51.83.38,1.48,1.53,2.69,3.63,3.01,1.18.18,2.35.36,3.55.54.22.87.74,1.71,1.67,2.46,4.41,3.56,8.35,7.51,11.87,11.93,1.55,1.95,3.83,2.02,5.7,1.08.49.4.97.79,1.46,1.19.03.06.05.12.08.18.45.91,1.06,1.55,1.72,1.98.16.22.31.44.46.67.37.5.79.91,1.27,1.25.23.28.45.56.69.84.25.3.52.55.77.76.04.05.08.12.13.17.56.76,1.04,1.55,1.46,2.41.49.91,1.1,1.56,1.76,1.99.08.11.17.2.25.31.65.9,1.32,1.78,1.97,2.68.43.58.92,1.03,1.45,1.38,1.47,2.08,2.92,4.15,4.39,6.23.64.92,1.44,1.54,2.27,1.93.09.19.18.37.27.55.06.18.13.36.2.53.61,1.43,1.22,2.86,1.84,4.29.5,1.16,1.31,1.88,2.27,2.27.65,1.06,1.34,2.08,2.06,3.08-.04.56-.01,1.14.15,1.77.69,2.61,1.69,4.99,3.04,7.33.16.26.33.49.5.71.57,3.01.37,5.81-.61,8.98-1.81,5.88,6.49,8.69,9.43,4.22,1.39-.42,2.62-1.53,3.19-3.52.37-1.28.64-2.54.89-3.83.14-.24.25-.5.36-.78.86-.83,1.39-2.05,1.3-3.68s-.18-3.27-.27-4.91v-.03s-.05,0-.05,0Z" fill="url(#radial-gradient-51)" stroke-width="0"/>
        <path d="M483.58,168.97c-.35.14-.7.27-1.03.41-.36-.53-.11-.85.77-.96.09.18.18.37.27.54h0Z" fill="#fff" stroke-width="0"/>
        <path d="M342.98,214.88c.8.31-.35,4.98-.91,5.68-1.87-.25-.89-4.93.91-5.68Z" fill="url(#radial-gradient-52)" stroke-width="0"/>
      </g>
      <path d="M533.93,204.45c-.35-.05-.11-.81,1.04-1.32,0,0,3.22-3.28,3.54-4.39,1.18-4.05,2.52-7.72-2-13.12-.09-.12-.22-.2-.34-.3-1.69-1.4-5.34-3.39-7.64-3.48,0,0,1.85-4.55-2.31-8.92-1.87-1.96-4.25-3.36-7.97-4.39-3.63-1.02-7.69.55-8.84,1.68-2.93,2.89-4.55,1.01-7.49-1.73-1.29-.65-3.14-1.6-4.82-2-.57-.14-1.51-.17-1.61-.22-.71-.34,6.18-11.99,7.67-18.14,1.37-5.65,3.1-18.29.06-29.84-1.38-5.24-3.27-10.35-5.46-15.32-1.06-2.4-2.13-6.25-3.95-8.19-2.41-2.56-1.64-1.72-3.95.27-3.18,2.76-6.02,9.13-8.97,12.34-2.32,2.52-4.66,5.04-6.8,7.72-4.99,6.26-10.72,12.1-15.4,18.69-2.79,3.93-4.34,9.59-7.33,13.12-3.23-3.08-7.36-4.27-11.64-5.22,3.01-8.02,5.01-15.41,3.91-24.07-.52-4.03-1.56-7.95-2.86-11.79-1.16-3.44-2.49-10.21-5.01-12.86-2.71-2.83-3.34-.51-5.31,2.44-2.57,3.87-5.03,7.82-7.65,11.68-2.54,3.76-5.25,7.42-7.79,11.19-1.92,2.87-3.71,7.8-6.44,9.91-9.64-11.64-26.88-12.01-35.9-8.93,1.92,4.16,5.27,8,7.49,12.09,2.56,4.7,4.8,9.57,7.59,14.15.42.69,1.19,1.67,1.92,2.72-3.84-1.44-8.71-.56-14.16,3.55-.82-5.35-2.68-9.63-7.25-12.47l-4.36.57c.13.2.22.42.33.63.11.11.19.21.28.32,1.39.25,4.46,1.12,6.62,4.08,1.33,1.83,2.02,4.16,1.87,6.82,0,0-.51.15-.96.09-2.74-1.54-5.6-2.85-8.48-3.36-.11.08-3.06-1.14-10.03,2.59-6.01,3.21-6.97,12.19-4.84,18.77-1.26.55-3.01,6.09-5.15,5.04-3.15-1.56-9.68-1.67-11.96-.49-5.11,2.62-6.24,5.63-6.99,7.61-5.66-4.59-13.46-5.69-18.92-.02-5.41,5.63-3.08,12.9.94,18.6-6.78,6.45-7.28,13.58-1.9,21.19-9.74,10.73-2.17,27.02,12.71,23.53-1.75,6.64.83,10.63,3.89,16.32-3.64,2.19-7.51,5.73-11.87,5.57-4.34-.17-7.48-2.49-12.09-1.37-9.38,2.27-9.73,9.32-11.5,16.89-3.37,3.06-11.71,4.11-16.11,5.09-5.57,1.26-7.99,2.26-12.47-.91-7.86-5.57-20.84-4.77-23,6.43-11.8-.77-23.85-1.62-35.17-5.35-7.7-2.54-6.77-12.59-16.1-14.26-3.98-.71-7.45,1.83-10.98.73-2.95-.92-10.25-7.27-10.85-10.31-.93-4.61,1.41-7.97-2.1-12.15-2.77-3.28-6.61-4.04-10.71-4.05-1.77-5.44-4.13-9.02-1.43-13.92,1.86-3.38,3.87-6.22,1.56-10.12-1.27-2.13-3.43-2.79-4.06-5.17-.58-2.15,1.36-6.26,2.09-8.27,1.4-3.88,3.08-7.8,5.91-10.68,2.82-2.87,6.13-5.91,8.76-9.46,3.43-4.62.23-6.82-4.54-9.14-4.33-2.11-22.94-5.58-18.57,3.83-8.68,5.67-15.22,13.32-20.07,22.44-8.82-1.42-15.64,5.67-11.26,14.42,1.41,2.82,2.44,2.56,2.46,5.79.01,2.23-1.19,5.4-1.54,7.62-.8,5.12-.84,10.24-1.29,15.39-12.75,6.06-10.88,18.03-.94,25.94,5.41,4.32,6.77,13.12,9.85,19.37,3.12,6.33,7.02,12.17,10.91,18.06-2.39,8.43-.98,15.92,7.9,19.85,3.88,1.73,7.64.67,11.48,1.76,4.01,1.14,8.1,5.52,11.57,7.82,16.85,11.2,35.13,18.7,54.1,25.54-.03,10.24,6.97,16.63,17.51,15.81,5.15-.4,9.56-2.64,13.77-5.4,4.95-3.24,7.84-2.07,13.76-1.46,11.32,1.17,22.77,1.33,34.15,1.07,5.62-.12,11.24-.45,16.83-.98,4.61-.44,10.02-2.3,14,.21,3.67,2.33,5.1,4.39,10,4.25,3.87-.11,7.54-1.49,10.44-4.03,2.87-2.51,4.11-6.25,7.49-8.15,3.97-2.24,13.1-4.74,17.47-6.09,22.08-6.84,40.15-14.78,60.63-25.32,6.15,4.35,12.87,4.36,18.39-1.28,4.98-5.09,2.91-11.41,5.92-16.92,1.45-2.65,5.48-4.58,7.87-6.39,2.12-1.6,4.22-3.26,6.3-4.92-1.43,4.48-2.04,9.22-2,13.91.04,7.33,1.48,14.65,3.68,21.63.97,3.07,3.95,15.81,7.39,16.71,2.8.73,10.59-14.63,12.18-17.12,4.22-6.6,8.78-13.17,11.8-20.44,1.07-2.54,1.87-5.21,2.37-7.89,3.28,4.29,5.33,7.01,5.79,7.69,3.01,4.34,25.04,25.15,26.72,17.74,3.09-13.62,5.11-29.43,5.6-43.36.45-13.61-4.36-23.16-14.4-32.12,1.59-1.89,4.84-2.8,6.93-4.23,3-2.05,5.75-4.47,8.17-7.17,4.29-4.84,7.8-10.75,9.18-17.09,3.02-13.91-6.17-31.76-15.18-33.14l.02-.03v.02ZM533.98,186.93c3.56,3.16,4.5,8.24,2.04,12.31-3.75,6.2-9.89,3.1-15.89,3.09-1.49-5-4.01-12.37,1.11-16.33,3.63-2.82,9.46-1.96,12.75.94h0ZM531.24,206.9c-5,1.67-13.09,2.84-16.85,3.9,2.66-6.59,9.63-9.46,16.85-3.9ZM509.95,172.03c2.5-2.04,5.81-2.33,8.84-1.5,3.94,1.09,10.35,6.86,7.82,11.54-4.24.19-8.14,1.69-10.81,6.59-1.33-5.32-5.22-5.91-9.57-5.6,1.06-4.7.52-8.41,3.72-11.02h0ZM484.34,186.31c13.32.03,13.81,20,.94,20.94-14.05,1.03-15.21-20.98-.94-20.94h0ZM470.96,186.58c-13.68-.12-12.88-21.71.81-21.24,13.73.48,12.87,21.37-.81,21.24ZM473.28,189.8c-1.51,4.22-2.5,8.38-.03,12.77-3.25,1-5.69,2.08-8.56,3.9-4.83-3.49-9.71-7-14.84-10.71,5.33-4.7,7.44-7.37,9.82-14.11,3.23,5.1,7.5,7.86,13.6,8.16h0s0,0,0,0ZM479.8,209.04c-1.33,2.35-2.55,4.52-3.92,6.98-2.96-2.5-5.94-5.04-9.14-7.76,4.86-5.03,8.41-2.61,13.06.78ZM499.09,218.88c-.21,4.39-4.55,10.59-9.69,9.75-3.23-.52-10.66-8.48-10.89-11.54-.9-11.59,21.18-11.32,20.58,1.78h0ZM505.44,191.08c14.1-1.52,15.47,20.75,1.11,20.85-13.02.09-13.8-19.47-1.11-20.85h0ZM515.1,191.73c-8.28-3.45-11.38-1.5-14.45-2.04,8.85-11.48,14.84-1.91,14.45,2.04ZM504.58,174.6c1.95,4.98-.52,11.65-5.69,13.74-5.19,2.1-9.26-4.16-14.93-4.49.02-6.08-.34-12.27,6.18-15.06,5.56-2.39,12.21.16,14.44,5.8h0ZM493.05,164.97c-2.08.62-4.06,1.31-5.95,2.1-1.35.56-5.15-.12-6.95.16,2.72-5.16,15.59-15.81,19.58-16.39-.05,5.72-4.68,9.24-6.68,14.15h0ZM499.85,150.04c-.38-.96-9.6,3.39-11.18,4.73-3.38,2.83-7.08,8.64-11.33,9.77,1.23-5.73,3.08-14.29,7.07-18.68,3.95-4.33,12.09-8.84,17.49-11.08,1.52,2.87.17,12.59-2.06,15.26h0s0,0,0,0ZM493.7,101.2c1.29,2.03,3.97,6.36,3.46,8.72-.49,2.32-4.56,5.49-6.1,7.2-.66-4.23.66-12.11,2.63-15.92h0ZM498.9,113.04c2.23,5.66,3.71,11.4,4.12,17.5-6.19,3.99-12.32,7.93-18.45,11.88l-.39-.3c3.49-10.33,3.27-23.67,14.73-29.09h0ZM489.15,101.23c.21.07.42.16.63.23.1,2.43.32,4.86-.46,7.22-.23.05-.45.12-.69.17-.8-1.31-1.6-2.64-2.45-4.02,1.09-1.32,2.02-2.46,2.96-3.6h0ZM485.14,106.4c2.53,3.91,4.93,7.46,2.45,12.25-3.57-3.74-6.15-8.4-2.45-12.25ZM481.35,111.44c2.11,4.6,5.55,9.58,4.81,14.69-.5,3.44-2.24,13.51-4.61,16.03-2.72-4.88-7.41-14.1-7.83-19.66-.33-4.26,4.15-8.72,7.63-11.05h0ZM455.19,145.22c2.78-8.92,10.18-15.47,16.21-22.2,6.56,11.5,12.22,26.92,3.61,38.8-2.31-2.47-2.87-6.22-4.49-9.52-1.33-2.74-8.26-16.93-8.81-18.58-1.84,2.77,10,24.47,11.22,29.16-2.15.37-4.05.7-6.17,1.06-1.33-1.99-3.38-1.68-5.62-.75,1.27.4,2.52.81,4.16,1.32-1.65,1.54-3.1,2.89-4.81,4.5-.92-4.14-.87-8.54-2.45-12.5-1.83-4.54-4.44-6.18-2.84-11.3h0ZM439.78,135.68c-1.86,6.31-4.78,6.15-10.97,7.46,2.61-4.33,7.29-8.04,10.78-11.67-1.83-2.86-10.18,9.85-12.73,11.25.55-3.91,1.18-9.54,3.26-12.94,2.11-3.43,7.84-7.25,11.35-9.18.44,4.94-.29,10.28-1.7,15.07h0ZM433.94,96.98c1.72,1.7,2.62,3.38,3.81,6.93-1.41,1.65-2.63,3.59-4.98,5.25.41-4.26.78-8.03,1.17-12.18ZM438.35,105.84c1.55,2.53,4.11,8.93,3.2,11.9-.75,2.44-8.49,7.66-10.99,8.58.48-3.64.57-7.69,1.51-11.23,1.01-3.79,3.73-6.26,6.29-9.25h0ZM431.19,98.31c.7,2.12.4,7.98-1.01,10.85-2.1-4.59-3.4-7.02,1.01-10.85ZM426.34,104.94c3.75,7.39,3.85,11.87,2.61,20-.19.04-.37.08-.56.14-1.87-2.5-5.02-8.67-5.52-11.82-.56-3.5,1.48-5.47,3.48-8.31h0s0,0,0,0ZM420.64,113.15c2.71,3.99,5.63,9.95,6.76,14.66.94,3.96-.84,8.37-1.77,12.28-3.75-4.89-6.07-10-8.86-14.8-.2.06-.4.13-.6.2,1.33,6.13,7.1,10.9,8.02,16.99-3.05,1.5-9.82-4.39-10.89-6.92-.99,1.56-.65,4.42-3.81,3.12-3.11-8.74,6.48-19.04,11.17-25.54h0s0,0,0,0ZM425.28,148.81c-.13.22-.25.44-.39.67-3.69-.31-9.45-1.96-12.58.38,5.58,4.57,18.46,2.49,25.23,1.98,1.2-.09,7.1.65,5-2.08-1.44-1.86-11.42,0-13.63.14-1.07-6.4,6.93-6.53,11.72-5.51,6.57,1.4,11.99,6.85,14.59,12.85,5.15,11.78,1.7,28.49-7.9,37.17-17.7-10.7-35.9-20.15-56.73-23.21-.17-.61-.3-1.22-.41-1.85.2-10.11.66-11.1,4.3-17.49,7.18-10.26,21.21-15.17,30.79-3.03v-.02s0,0,0,0ZM392.04,136.9c4.91-4.66,8.42-.13,11.93,3.62-4.04.37-7.5-3.39-11.93-3.62ZM406.62,139.33c-3.05-2.32-4.83-10.82-5.04-14.6,5.28,2.7,8.24,9.18,5.04,14.6ZM402.82,136.26c-1.75-.11-7.24-4.95-8.36-6.48-1.76-2.4-1.81-6.46-2.39-9.37,9.03,1.14,8.9,8.37,10.74,15.85h0ZM390.29,119.8c.61,2.63,1.2,5.12,1.81,7.67-4.5-.85-7.28-3.55-8.29-8.31,2.28.22,4.31.42,6.49.63h0ZM382.48,121.76c-1.84.23-3.1-.93-5-1.65,3.52-1.48,4.18-1.24,5,1.65ZM376.33,121.18c2.68,1.11,4.9,2.16,7.58,3.69-4.34.53-5.96-.27-7.58-3.69ZM380.05,127.33c3.48-2.09,8.58-.76,11.61,3.26-3.94-.23-10.03,1.1-11.61-3.26ZM382.45,132.19c3.52-1.15,10.84-.61,13.23,1.01-2.83,1.73-8.03,2.29-11.31,3.01,4.62,1.38,12.39,1.59,16.24,5.86-1.58,1.29,1.73-1.4,0,0-1.51-1.97-10.33,2.64-11.39.1,4.26-.19,9.66,2.34,9.66,2.34.03,1.89-5.8,4.67-6.16,4.93-4.39-3.48-7.68-12.17-10.28-17.27h0ZM391.33,175.5c.07.09.15.19.22.28.3-.04.58-.07.87-.12.64-.02,1.25.11,1.81.36,4.92.94,9.74,2.3,14.44,3.97,17.55,6.28,34.35,15.69,49.23,26.8,14.62,10.91,28.59,24.02,38.02,39.72,4.48,7.45,9.06,16.43,10.08,25.15.91,7.71-3.12,21.2-13.46,16.29,4.61-14.8-6.06-30.77-14.95-41.81-9.11-11.31-20.07-21.37-31.88-29.87-10.96-7.88-42.45-23.92-62.32-25.49-8.56-1.33-10.21-1.85-16.33,2.41-2.3,1.59-5.47-.43-5.47-.43-1.41-1-1.97-3.26-2.01-4.84-.05-2.19.96-7.14,5.01-9.94,3.62-2.51,8.65-3.06,12.95-3.26,4.62-.23,9.23.07,13.8.78h0ZM463.46,267.29c-8.04,10.51-17.09,21.06-20.5,23.35-2.94-4.78-5.89-9.56-8.98-14.59,6.32-7.51,26.16-35.05,29.06-39.45,4.53,4.54,8.6,8.92,12.2,13.86-2.17,3.64-11.96,16.57-11.76,16.84h0ZM342.76,223.87c2.91,7.3-2.97,7.06-7.77,10.49-2.6,1.86-2.75,3.11-5.83,2.4-1.9-.44-4.25-2.77-5.25-4.34-3.63-5.66-.1-10.67,3.99-14.7,5.72,3.18,12.01-1.04,14.88,6.15h0s0,0,0,0ZM341.92,216.58c.8.31.93.81.36,1.51-.87-.25-.99-.76-.36-1.51ZM334.53,217.34c-13.56.09-13.93-21.02-.31-21.11,13.77-.1,14.2,21.02.31,21.11ZM328.11,194.53c.16,0,.5.47.47.5-.35.39-.74.76-1.27,1.28-.24-1.11-.17-1.73.79-1.76h0v-.02ZM347.96,209.66c3.14,2.31,6.56,2.47,10.28,2.27-1.5,4.05-6.44,19.01-11.76,17.67-.8-.98-2.26-8.42-2.22-10.08.1-3.3,2.44-6.86,3.69-9.85h0,0ZM366.3,204.46c2.87-7.44,4.47-14.09,14.3-11.22-2.2,9.33-6.53,18.57-10.82,27.11-1.16,2.31-2.88,7.8-5.22,9.21-2.13,1.28-6.99-.21-9.23-.45,2.91-8.41,7.74-16.28,10.97-24.63h0s0-.02,0-.02ZM383.05,193.49c6.64.48,12.87,2.65,19.69,4.93-5.61,13.13-11.61,25.6-19.44,37.16-5.57-1.74-10.92-3.42-16.31-5.1,5.84-12.2,11.14-24.37,16.08-36.98h0s0,0,0,0ZM404.57,199.24c2.83.97,5.55,2.08,8.21,3.26.52.65,9.04,3.9,9.31,4.52.07.04.15.07.23.12-.02.07-.06.17-.09.26.03.09.07.19.09.28.06.45-3.22,6.21-3.3,6.24-5.57,10.27-16.22,27.48-19.22,30.55-4.79-2.63-9.43-5.18-14.4-7.9,7.04-12.2,13.33-24.5,19.17-37.33h0ZM421.93,214.01c.27-.35,2.04-4.47,2.67-5.51,5.93,2.82,15.27,8.73,17.62,11.14-.72,1.7-22.07,35.36-24.91,38.29-5.05-3.97-10.11-7.96-15.14-11.92,6.43-10.76,19.76-31.98,19.77-32h0ZM436.69,232.94l1.61-2.5c2.03-3.14,4.04-6.28,6.09-9.45,6.1,4.18,11.73,8.98,17,14.13-1.36,2.5-4.62,7.4-8.5,12.9,0,0-17.93,24.23-20.3,26.01-4.37-4.75-8.75-9.49-13.16-14.27,5.71-8.86,11.45-17.78,17.26-26.81h0ZM373.05,155.56c-.97.43-1.66.74-2.92,1.3,1.41.81,8.25,1.35,8.25,1.35,3.68-.12,7.36-1.02,8.67-3.14,1.04-1.68,1.13-1.84-.89-1.98-2.99-.21-6.32,2.78-9.59,2.96l-.32-.39c2.71-4.2,10.29-7.11,15.61-4.9-.57,1-4.12,12.83-4.37,17.56v.03c-.11.2-.74,2.8-2.35,2.64-3.17-.28-2.08-.34-5.72-.52-3.77.21-5.41-.08-8.48.59-3.03.67-4.83,1.48-7.42,3.05-3.06-4.61-7.41-6.99-12.98-6.46-2.65-14.63,11.77-21.68,22.5-12.09h0s0,0,0,0ZM351.09,170.1c2.79-1.26,10.94,2.13,10.13,4.97-2.16,2.78-2.9,3.94-4.39,6.92-2.87,1.22-4.36-.23-7.16-2.92-1.02-3.18-2.12-7.39,1.41-8.97h0ZM355.91,190.17c1.03,3.6,3.06,6.71,7.76,7.46-.76,3.28-1.98,9.91-5.18,11.73-3.18,1.81-8.49-.14-10.61-2.75-2.02-2.49-2.99-8.19-1.89-11.17,1.75-4.74,5.43-5.29,9.92-5.27h0ZM348.06,185.65c.76,12.31-21.64,12.52-21.24-.87.41-13.57,21.29-12.73,21.24.87ZM314.96,180.1c13.53-.08,13.91,20.99.19,21.06-13.56.07-13.92-20.98-.19-21.06ZM304.35,216.65c-1.73-3.99-1.25-10.33,2.61-13.13,2.55-1.86,2.49-.91,5.62-.47,3.23.45,6.13-.28,9.33-.27-1.16,4.89.02,9.06,3.05,12.56-3.3,9.52-16.32,11.18-20.61,1.3h0ZM305.04,240c-3.21-3.66-3.98-10.85-.23-14.56,2.53-2.5,2.75-.95,6-.15,3.09.77,5.59-.1,8.65-.1,1.13,5.43,5.46,10.79.69,15.42-4.28,4.16-11.23,3.83-15.12-.62h0s0,0,0,0ZM328.78,240.39c-.4,5.62.09,8.64,2.13,13.95-1.9,1.53-4.17,3.37-6.36,5.16-8.04-4.27-6.43-22.18,4.23-19.11h0ZM330.87,260.25c3.77-2.94,8.67-6.58,12.58-8.27,30.86-21.57,104.76,64.11,82.37,83.84-6.57,2.38-29.05,13.87-36.09,17.36-2.84,1.39-44.15,15.93-42.46,13.33,12.43-19.28-5.9-86.28-30.85-96.42,4.93-3.17,9.84-6.24,14.47-9.84h0s0,0,0,0ZM283.65,288.61c7.05-2.58,10.44-4.18,17.86-2.17-1.52,4.7-16.11,6.97-20.23,7.77-4.07.8-16.28,4.84-17.53-.43,6.7-1.47,13.42-2.82,19.89-5.18h0ZM308.35,353.44c-14.36,1.33-32.63,3.01-46.63-.95,1.69-5.44,3.33-10.72,5.07-16.34,19.51-.09,38.97-1.96,58.61-6.51.42,2.76.94,5.5,1.24,8.28.26,2.4,1.77,8.87.77,11.01-2.03,4.31-14.33,4.08-19.07,4.51h0ZM325.68,363.59c-1.66,1.77-5.11,1.52-7.34,1.82-7.3,1-14.61,1.68-21.97,2.05-13.69.68-28.37,1.45-41.92-.93,2.11-3.95,4.07-7.65,6.19-11.64,22.21,2.43,44.34,1.98,66.36-1.84.15,2.28.37,8.73-1.33,10.55h0ZM267,333.83c1.42-8.06,1.55-15.76,1.09-23.75,16.21-.79,32.11-2.74,47.69-7.77,4.95,7.7,7.44,16.14,9.17,25.26-19.01,4.49-38.12,6.36-57.94,6.27h0s0,0,0,0ZM267.81,307.9c-.78-3.09-1.51-6.02-2.33-9.3,9.95-1.52,19.66-2.46,29.16-6.04,3.14-1.19,7.44-4.55,10.66-3.51,3.55,1.15,7.69,8.51,9.42,11.53-15.5,4.8-30.99,6.78-46.91,7.32h0ZM157.75,187.08c-1.75,2.06-3.25,3.8-4.93,5.76-2.7-3.39-5.49-6.62-8.44-9.81,5.12.1,9.41.91,13.36,4.05h0s0,0,0,0ZM140.51,186.37c-.74.9,10.07,8.17,8.96,9.84-2.77,4.2-3.92,7.16-5.6,10.69-1.24,2.62-1.48,4.49-3.88,9.81-.16-.45-20.9-6.28-20.37-6.96,1.65-2.09,6.88-9.42,10.19-12.76,2.84-2.86,5.82-6.7,10.7-10.6h0s0-.02,0-.02ZM113.78,211.3c5.23,5.45,13.26,8.78,20.22,11.5,2.59,1,8.86,1.15,10.3,3.38,1.8,2.82-.7,5.59-3.53,6.25-5.77,1.33-16.77-5.3-21.81-7.66-5.12-2.38-14.7-9.14-5.16-13.48h0ZM110.36,256.11c-3-11.05,1.08-17.46,1.53-26.99.05-1.27.46-4.34,1.47-3.57,6.22,4.78,21.81,10.34,29.28,9.56-.97,3.29.51,7.35.65,8.14.43,2.27,2.1,5.46,2.14,7.94.13,9.86-26.06,16.83-35.07,4.91h0s0,0,0,0ZM103.3,268.41c-2.52-4.05-2.81-11.36,3.09-12.59,4.61,12.05,19.65,11.76,30.55,7.88,3.04-1.08,6.31-2.48,8.84-4.51,1.7-1.35,3.44-5.33,5.19-6.1,5.37-2.34,6.81,6.67,5.35,9.83-5.18,11.19-26.56,13.61-37.09,12.85-6.09-.43-12.49-1.85-15.94-7.38h0s0,0,0,0ZM112.32,278.97c3.66,4.24,42.47,0,45.5-10.98.97-3.53,9.71,9.17,15.19,12.16,3.57,1.94,2.7,10.01-4.37,20.06-4.44,6.31-29.14,18.69-38.88,12.71-8.27-12.74-12.75-20.33-17.43-33.95h0ZM130.28,316.96c6.49,1.92,10.47,3.05,17.24.87,5.62-1.81,10.99-4.52,15.72-8.06,10.52-7.89,16.93-17.65,14.61-30.85,9.91-6.61,12.6,10.32,11.19,15.87-2.37,9.27-9.27,16.94-16.53,22.86-7.29,5.94-16.05,10.94-25.4,12.72-7.71,1.47-22.3-2.83-16.83-13.42h0s0,0,0,0ZM217.86,366.58c-7.28.87-23.3-8.63-29.98-11.63-12.16-5.48-27.25-12.43-37.22-21.4,31.15-10.06,46.48-34.77,43.66-43.96-.08-.28,9.26,3.02,16.39,4.07,9.1,1.34,18.05,2.56,26.85,3.68,17.52,1.76,6.54,66.12-19.71,69.25ZM242.36,373.54c-4.43,3.86-9.92,6.84-15.97,6.66-4.34-.13-12.87-3.57-10.1-9.41,16.47,4.37,28.31-21.78,31.9-33.56,2.39-7.81,3.72-16.53,2.96-24.69-.88-9.31-3.67-14.65-11.41-19.6,1.1-6.25,9.07-5.88,13.31-3.45,4.59,2.64,6.95,7.49,8.49,12.32,3.91,12.34,2.39,26.97-1.03,39.26-3.21,11.53-8.93,24.46-18.15,32.5h0v-.02ZM311.26,372.89c-6.7.71-13.43,1.15-20.16,1.32-13.35.34-27.98.6-41.1-1.93,3.84-4.92,7.22-3.13,13.16-2.73,7.29.5,14.6.62,21.93.45,13.32-.3,26.4-2.53,39.65-3.16-1.62,6.14-8.15,5.47-13.46,6.04h0s0,0,0,0ZM345.67,354.71c-.72,8.58-7.38,32.04-20.65,20.99,12.24-14.54,7.2-41.73,2.32-58.14-2.82-9.47-6.82-18.44-13.28-26.03-6.15-7.23-8.22-8.06-16.26-10.6-2.06-.64-8.77,1.09-6.17-5.96,3.83-10.44,22.41-2.11,28.34,3.47,9.62,9.06,15.96,21.97,19.93,34.36,4.31,13.37,6.93,27.84,5.76,41.92h0s0,0,0,0ZM432.01,336.85c7.52-21.09-9.07-46.95-23.21-61.47-16.08-16.49-39.67-34.37-63.39-29.44-6.4,1.33-11.55,8.08-12.49,5.05-3.99-12.75,4.37-15.28,6.92-16.28,10.77-4.19,21.8-1.26,32.15,1.81,21.93,6.48,42.18,21.62,56.15,39.47,7.9,10.12,14.08,21.72,16.91,34.28,1.77,7.87,2.47,33.09-13.04,26.57ZM445.11,292.05c1.58-4.09,8.52-9.28,11.33-12.61,2.89-3.42,5.61-6.95,8.27-10.53.2.25,2.6-3.54,2.6-3.54,3.11-4.29,6.17-8.62,9.29-12.92,1.94,2.39,7.55,8.86,7.36,12.15-.18,3.09-4.87,7.59-8.3,10.83,0,0-19.02,20.03-27.88,27.11-1.4-3.41-3.96-7.18-2.66-10.5h0s0,0,0,0ZM450.88,314.76c-2.31-3.64-2.85-8.63-.35-11.76,3.49-4.36,8.8-8.02,12.81-11.99,3.52-3.47,11.3-11.1,11.57-11.45.65-.64,1.78-2.89,1.78-2.89,2.89-3.23,5.78-6.46,8.77-9.61,1.82,3.49,4.51,9.61,3.6,13.77-.42,1.96-2.06,3.98-4.03,5.89,0,0-6.3,5.37-7.2,6.19-8.49,7.74-17.36,15.49-26.95,21.84h.01ZM485.64,295.97c-.27,8.06-7.92,18.67-18.06,16.91l16.9-18.42c.39.51.78,1.01,1.16,1.51h0ZM467.32,317.19c5.24,4.05,10.85-7.43,15.41-8.67-1.09,4.78-1.53,9.5-5.41,12.48-2.99,2.28-6.89,5.95-10.51,6.83-.18-3.53-.59-6.9.49-10.63h0ZM467.12,330.75c3.99-2.61,7.87-5.14,12.09-7.9-.17,4.26-1.37,8.9-2.49,13.05-1.15,4.31-3.03,5.63-6.58,8.23-1.6-4.48-2.63-8.86-3.04-13.38h0ZM473.85,353.4c-1.63-2.28-1.95-4.49-3.1-6.72,1.41-1.1,2.65-2.06,4.43-3.43-.47,3.62-.85,6.57-1.33,10.15h0ZM476.45,354.98c.37-3.12.67-5.76,1.03-8.73,3.01,3.42,3.6,3.68-1.03,8.73ZM478.84,342.24c1.47,1.44,2.67,3.01,2.73,5.19-1.64-1.37-2.64-3.06-2.73-5.19ZM483.59,344.81c-4.81-6.6-4.19-10.01-2.49-17.67,1.65,2.9,3.03,5.97,4.2,9.1,1.5,4,.71,5.02-1.71,8.57ZM488.25,337.31c-1.83-4.03-4.22-8.22-5.37-12.5-1.09-4.04.36-7.94,1.21-11.98.26-.06.54-.13.8-.2,3.04,5.07,6.05,10.13,9.06,15.21-1.4,3.07-3.31,6.12-5.7,9.46ZM494.79,325.11c-2.05-2.8-5.72-8.4-7.33-14.54-1.22-4.68-1.51-9.57-.73-13.18,5.03,6.53,9.35,12.14,12.7,16.52-.13,3.57-2.83,9.17-4.63,11.2h0ZM501.7,310.44c-5.07-6.63-12.91-13.88-13.39-17.78,0-1.52,4.57.7,4.59.25,2.19-.16,4.16.23,6.58-.34,2.26-.02,5.11-2.19,6.46-3.52,3.84-7.05,3.01-5.02,6.08-12.61.2.48.5,1.3.6,2.35.5,5.05-2.31,7.96-5.06,14.25-3.07,7-5.29,16.27-4.43,16.74.91.49,2.62-9.32,5.67-15.33,2.53-4.96,3.79-9.45,4.45-12.56.06.35.15.81.23,1.35,0,0,.08.55.16,1.12.12.91.67,8.17.42,11.18-.4,4.68-3.83,11.63-9.76,18.55-.85-.95-1.74-2.22-2.61-3.65h0ZM506.35,316.36c-.15-1.94,3.14-6.19,4.06-7.91,1.86-3.42,3.71-6.83,5.57-10.24,1.16,5.16,2.24,10.35,3.38,15.53,1.44,6.52.43,9.44-2.56,15.5-3.17-3.03-10.09-8.33-10.46-12.86v-.02s0,0,0,0ZM518.88,331.12c.95-2.14,1.86-4.2,2.76-6.27.18.03.36.06.54.08,1.25,3.86,2.48,7.73,3.74,11.6-2.61-1.45-4.78-3.29-7.03-5.42h0ZM530.87,338.49c-1.72-1.33-3.69-6.23-4.16-10.2,1.76,1,3.22,1.83,4.98,2.83-.25,2.34-.54,4.78-.82,7.37h0ZM532.39,327.89c-4.72-.51-7.19-3.01-8.39-7.27.19-.09.38-.18.58-.26,2.87,2.16,5.7,4.36,8.1,7.02l-.28.52h0s0,0,0,0ZM533.07,323.68c-3.33-2.22-7.92-4.79-10.17-8.13-2.28-3.38-2.6-9.94-3.49-13.86.17-.06.34-.13.51-.2,3.87,3.8,7.94,7.48,11.63,11.45,3.41,3.65,2.3,5.84,1.54,10.72h0ZM529.43,274.77c3.55,2.18,7.44,12.27,6.38,16.18-.83.56-1.67,1.13-2.49,1.69,1.58,2.87,2.81,1.47,2.97,5.36.18,4.44-.86,9.3-1.25,13.74-5.11-2.87-12.21-10.1-15.57-14.91-2.88-4.13-4.42-12.7-4.03-17.73.22-.18.45-.35.68-.52,1.17,2.53,14.53,17.52,16.48,13.96-6.22-6.87-14.06-12.43-18.88-20.61.12-.19.22-.36.34-.55,2.98.76,5.84,1.84,8.87,2.32,2.14.34,4.65-.11,6.54,1.05h0s0,0,0,0ZM526.2,271.17c-2.37.54-15.28-1.54-13.87-5.39,5.43-.33,9.94,1.32,13.87,5.39ZM532.04,257.79c-6.01,4.7-20.28,9.86-25.08,1.48-2.66-4.64-4.18-9.91-7.02-14.57-2.9-4.76-6.27-9.2-9.57-13.69,9.46-3.52,11.03-6.07,10.78-17.47,6.39.86,10.82-1,16.99-1.89,5.58-.8,9.99-1.38,15.55-3.65,19.79,11.76,14.14,37.46-1.65,49.8h0,0Z" fill="url(#radial-gradient-53)" stroke-width="0"/>
    </g>
    <g id="copi">
      <g>
        <path d="M1058.72,326.9c2.38-3.78,4.41-7.82,7.21-11.25,2.99-3.67,6.69-6.75,11.88-11.88-4.03,1-6.35.93-7.69,2.04-3.31,2.7-6.23,5.88-9.2,8.98-4.3,4.48-9.78,6.25-15.72,7.02-.6,1.67-1.2,3.31-1.82,5.04-1.62-1.15-3.02-2.15-5.38-3.82-2.78,3.86-5.31,7.38-7.97,11.06,0,5.5-.3,11.2.07,16.87.66,10.21-.4,20.37-4.37,29.58-1.68,3.88,2.89,4.17,1.49,6.81-1.23,2.31-2.53,4.82-2.83,7.35-1.19,10.03-1.94,20.1-3,30.15-.42,3.98,1.71,8.43-2.56,11.87-.95.76-1.06,4.51-.14,5.33,5.86,5.23.57,11.9,4.22,18.46-4.48,1.31-8.08,1.83-11.14,3.41-2.77,1.43-4.94,4-8.2,6.77-2.93-4.13-5.45-7.68-7.98-11.23,0-7.6-.37-15.22.11-22.79.43-6.76,1.73-13.48,2.78-20.19s-.71-13.3,2.28-20.43c2.8-6.67,2.07-15.19,2.98-22.86,2.34-19.86,2.75-40,3.23-60.04.48-19.93.16-39.9.03-59.84-.01-2.16-.71-4.44-1.64-6.42-2.49-5.26-5.85-10.22-2.46-19.37-6.19,3.86-9.25,5.77-14.46,9.03,2.84-6.02,4.65-9.86,7.46-15.83v-10.53c2.4,1.16,4.23,2.04,6.51,3.14,10.45-24.96,6.92-50.97,7.58-76.08,1.43-1.42,2.44-2.42,4.31-4.28,1.72,2.29,3.34,4.45,6.35,8.46,3.38,1.51,9,4.04,15.45,6.93,3.53-3.51,6.65-6.96,10.16-9.97,3.07-2.63,6.89-4.44,9.84-7.2,3.23-3.01,6.7-5.63,11.06-5.32,4.28.31,7.17-1.42,11.03-4.84,10.54.74,22.07,1.56,33.8,2.38,2.61,4,4.67,7.51,7.09,10.75,1.69,2.24,3.62,5.47,5.9,5.91,8.25,1.59,9.63,9.46,13.67,14.42,6.56,8.07,11.37,17.58,9.2,28.94-.39,2.03.24,4.7,1.36,6.47,2.04,3.18,1.89,5.64.01,8.89-1.27,2.2-1.61,5.29-1.39,7.9.71,8.49-2.55,15.92-5.9,23.27-6.88,15.12-15.85,28.88-26.06,42.09-5.45,7.04-11.55,13.29-17.45,19.83-3.35,3.7-5.69,8.37-9.27,11.77-8.45,8.02-17.33,15.6-26.19,23.17-.82.71-2.79.09-4.24.09h0ZM1075.97,147.25c-1.42,0-3.33-.6-4.17.09-8.46,6.95-16.75,14.12-24.33,20.59-.79,9.14,1.27,17.15-2.58,25.97,3.46-1.66,5.79-2.77,8.11-3.88-.33,1.76-.25,3.73-1.07,5.23-5.05,9.24-8.24,18.76-7.67,29.56.55,10.38.12,20.82.12,31.23v26.84c3.53-2.19,5.7-2.98,7.08-4.48,7.54-8.19,14.55-16.89,22.35-24.81,19.55-19.89,34.27-42.63,41.08-69.7,2.91-11.54,3.74-23.66-5.44-33.67-4.27.31-7.86.53-12.06,2.2-11.77,4.68-20.15,13.55-30.05,20.5.3-1.73-.02-4.19,1.02-5.06,4.84-4,7.91-9.76,14.37-12.37,3.51-1.42,7.82-4.66,7.58-10.09-4.15.68-7.82,1.26-11.48,1.86-.32-.78-.63-1.58-.94-2.36l-1.93,2.36h.01ZM1033.38,235.17h2.4c0-6.51.15-13.01-.04-19.51-.19-6.51.86-13.16-2.35-19.42v38.92h-.01ZM1000.85,219.03c-.86.05-1.71.09-2.57.14.36,2.52.71,5.05,1.07,7.57.5-.04,1-.09,1.5-.13v-7.57h0ZM1031.95,284.13h-.96v2.85h.96v-2.85ZM1089.36,289.83h-.96v2.85h.96v-2.85Z" fill="#6da6c2" stroke-width="0"/>
        <path d="M695.61,235.07c5.05-9.07,10.76-20.09,17.22-30.67,5.61-9.19,11.88-18,18.23-26.72,6.17-8.47,11.99-17.43,19.43-24.69,9.17-8.94,19.25-17.31,30.11-24.07,7.29-4.53,16.13-7.3,24.48-9.87,7.97-2.45,16.26.7,25.01,4.43,3.6,7.53,7.6,15.85,11.6,24.21-4.46,3.84-8.06,6.93-11.95,10.29-6.79-2.23-4.46-11.76-10.15-15.86-7.23-2.39-13.24,1.79-19.38,4.06-13.97,5.18-25.42,13.48-33.25,26.77-4.16,7.05-10.18,13.21-16.12,19-7.32,7.14-12.8,14.63-10.88,23.81-2.43,5.28-4.21,9.14-5.98,12.99.58.44,1.17.87,1.76,1.31,2.4-2.48,5.5-4.6,7.09-7.52,6.11-11.28,15.32-20.33,22.19-30.87,5.81-8.91,14.79-13.45,21.61-20.68.78-.81,2.46-.78,3.6-1.11,2.55,2.63-.33,3.47-1.29,4.25-13.45,11.07-22.65,25.8-33.1,39.29-6.89,8.91-10.86,20.11-15.71,30.49-7.82,16.74-16.01,33.33-21.18,51.16-1.47,5.09-4.02,10.04-4.45,15.19-.35,4.21,1.72,8.61,2.81,13.3h16.25c30.47-19.72,55.63-46.63,83.93-71.29,1.49,1.07,3.28,2.37,5.94,4.29-1.17,6.63,2.35,14-2.88,21.22,2.77.41,5.4.8,8.35,1.25-.12,1.56.3,3.3-.38,4.05-13.25,14.65-26.63,29.18-38.91,42.58-4.23,1.21-7.18,1.38-9.31,2.78-10.09,6.61-20.37,12.73-32.28,15.58-.82.2-1.55.9-2.25,1.46-13.98,10.98-27.32,5.12-41.15-.83-9.18-3.94-16.4-9.04-20.98-18.11-5.54-10.98-4.72-22.3-2.54-33.57,1.76-9.1,5.72-17.81,7.06-26.94,1.2-8.2,4.13-15.36,7.88-22.5.79-1.5-.11-3.87-.4-8.49h-.01l-.02.02Z" fill="#6da6c2" stroke-width="0"/>
        <path d="M963.77,276.66c2.63-2.04,3.64-2.93,4.85-4.03,3.44,6.28-.63,11.16-3.89,14.69-14.33,15.52-30.11,29.06-51.72,34.08-5.04,1.17-9.46,4.92-15.45,8.17-6.51-3.5-14.5-7.52-21.11-13.93-2.54-2.46-6.15-3.82-8.84-6.18-6.39-5.61-13.67-10.37-17.63-17.82-1.25-6.85-3.02-13.47-3.58-20.17-1.39-16.63,3.85-31.8,9.53-47.32,7.44-20.34,20.31-37.32,30.9-55.7,1.6-2.78,4.6-4.79,7-7.11,5.24-5.08,8.16-11.01,6.87-18.19,5.98-6.81,13.49-8.12,21.97-7.16.6-1.73,1.17-3.39,1.74-5.05,4.6,3.51,8.35-2.12,13.11-1.07,5.02,1.1,10.47.25,16.18.25,2.9,3.29,6.02,6.81,9.66,10.95,1.01,5.38,2.26,12.03,3.5,18.64,5.8,2.89,9.13,7.96,13.26,12.65,4.44,5.07,2.11,13.59,9.15,15.46.72,4.69,1.32,8.6,2.01,13.05-.28.1-1.94.68-3.75,1.31,2.13,4.87,2.67,8.82.26,14.73-6.97,17.13-16,33.32-22.71,50.53-.98,2.5-1.02,5.36-1.31,9.2.34-1.01.16-1.2-.03-1.39-.78.67-1.56,1.32-2.34,1.99l.9.89c.67-.77,1.33-1.55,1.47-1.5h0v.02ZM873.45,251.41c6.63-17.03,15.72-31.02,24.51-45.17,7.21-11.62,17.33-20.69,27.03-30.08,3.53-3.42,7.8-5.97,13.15-6.3.97-.06,1.77-2.78,2.66-4.29-1.29-1.28-2.64-2.62-2.99-2.97-7.78-2.81-13.65-.35-19.38,2.81-.33,1.28-.25,3-1.07,3.78-8.92,8.62-16.4,17.88-21.55,29.56-4.26,9.66-12.95,17.37-17.45,26.98-3.35,7.16-8.48,14.95,66.6-57.74-1.34.52-3.54,1-5.32,2.15-1.73,1.11-2.99,2.93-4.54,4.36-23.77,21.91-39.56,49.19-52.69,78.12-6.26,13.8-7.64,27.83.05,40.93,4.35,1.81,7.5,3.78,10.9,4.39,7.86,1.4,15.77,1.18,22.24-4.33,14.18-12.09,25.66-26.42,33.96-43.04,8.06-16.14,15.53-32.56,23.05-48.41-1.43-4.26-2.69-8.02-4.1-12.2-9.34-5.47-10.8-19.37-95.07,61.44h0ZM866.27,260.01c.66,5.03-.86,10.36,2.13,15.38-.76-6.57,5.83-11.41,3.69-18.09-.19-.58-1.13-.91-1.71-1.36l-4.1,4.07h-.01Z" fill="#6da6c2" stroke-width="0"/>
        <path d="M1191.34,135.85h8.18c2.93,3.21,5.76,6.31,8.6,9.41.45-.58.89-1.16,1.34-1.75,4.18,1.47,8.35,2.95,12.93,4.56v22.71c-6.59,5.56-.53,13.94-5.06,20.84-3.3,5.05-.4,13.14-3.26,19.91-2.39,5.66-.5,13.46-3.6,18.38-3.76,5.96-.11,12.69-4.52,18.3-1.88,2.4-.31,7.29-.88,10.96-.54,3.47-2.17,6.77-2.71,10.25-1.19,7.65-2.38,15.34-2.83,23.04-.48,8.05-.11,16.15-.11,23.19-2.55,7.83-8.96,4.56-13.21,5.84-1.98,1.97-3.68,3.66-5.41,5.37h-9.42c-2.91-3.98-6.14-8.41-9.29-12.7v-48.56c6.54-4.37-.63-13.16,5.74-17.59.12-16.88,8.5-32.31,8.61-49.19,5.5-9.49,4.51-20.68,8.08-30.84,2.09-5.97,1.13-13.45,3.37-20.02,1.28-3.74,2.18-7.63,3.44-12.11h.01Z" fill="#6da6c2" stroke-width="0"/>
        <path d="M1236.49,60.45c.98,6.73-6.85,11.51.53,17.05-7.33,9.86-14.66,19.73-23.18,31.18v-12.52c-2.83-.13-4.67-.22-5.94-.28-6.79,5.29-13.2,10.29-19.47,15.18-11.84-7.76-9.51-17.6-6.06-26.96,3.02-8.19,8.27-15.6,11.03-23.86,2.45-7.33,6.24-12.56,14.15-15.4,10.51,2.6,21.75,5.81,28.95,15.6h-.01Z" fill="#6da6c2" stroke-width="0"/>
        <path d="M992.71,205.24h2.87v.95h-2.87v-.95Z" fill="#6da6c2" stroke-width="0"/>
        <path d="M1059.05,327.16c-.67.77-1.33,1.55-2,2.32l-.9-.89,2.34-1.99.56.56Z" fill="#6da6c2" stroke-width="0"/>
        <path d="M1053,190.03c-.46-4.43,1.21-7.44,5.74-8.55.46,4.43-1.21,7.44-5.74,8.55Z" fill="#6da6c2" stroke-width="0"/>
        <path d="M1064.49,175.77c.96-.95,1.92-1.91,2.87-2.85-.96.95-1.92,1.91-2.87,2.85Z" fill="#6da6c2" stroke-width="0"/>
        <path d="M1061.61,178.62c.96-.95,1.92-1.91,2.87-2.85-.96.95-1.92,1.91-2.87,2.85Z" fill="#6da6c2" stroke-width="0"/>
        <path d="M1058.74,181.48c.96-.95,1.92-1.91,2.87-2.85-.96.95-1.92,1.91-2.87,2.85Z" fill="#6da6c2" stroke-width="0"/>
        <path d="M1075.97,147.25h2.87l-1.93,2.36c-.32-.78-.63-1.58-.94-2.36Z" fill="#6da6c2" stroke-width="0"/>
      </g>
    </g>
  </g>
</svg>