<?xml version="1.0" encoding="UTF-8"?>
<svg id="Layer_1" data-name="Layer 1" xmlns="http://www.w3.org/2000/svg" viewBox="0 0 468 443.16">
  <path d="M221.58,0C99.2,0,0,99.21,0,221.58s99.21,221.58,221.58,221.58,221.58-99.21,221.58-221.58S343.95,0,221.58,0ZM221.58,409.03c-103.52,0-187.44-83.92-187.44-187.44S118.06,34.14,221.58,34.14s187.44,83.92,187.44,187.44-83.92,187.44-187.44,187.44Z" fill="#010101" stroke-width="0"/>
  <path d="M353.77,138.07c-4.3-2.72-8.74-5.16-13.59-6.8-2.64-.89-5.21-.78-7.83.07-4.26,1.37-8.34,3.15-12.36,5.11-.63.11-.82-.48-1.21-.74-3.52-5.98-8.27-10.76-14.22-14.3-1.09-.65-1.13-1.15-.62-2.2,1.91-3.95,3.66-7.96,4.91-12.18.69-2.31.7-4.57-.03-6.88-1.58-4.96-4.09-9.46-6.84-13.83-.49-.78-1.16-1.24-2.06-.68-.87.54-.82,1.33-.34,2.14.17.28.35.56.52.83,2.3,3.78,4.45,7.64,5.88,11.86.72,2.1.73,4.14.05,6.25-1.26,3.91-2.92,7.65-4.65,11.36-.1.22-.17.47-.47.54-.36-.38-.32-.9-.45-1.36-1.07-3.87-4.55-6.63-8.55-6.77-4.03-.14-7.2,2.14-8.57,6.2-.15.43-.25.85-.76,1.02-4.32,1.47-7.3,4.4-9.25,8.46-.65.59-.75,1.44-.97,2.21-1.29,4.57-.75,9.07.64,13.51.35,1.12.76,2.21,1.15,3.33-.59.19-.98-.1-1.4-.22-4.77-1.38-9.58-1.72-14.4-.4-1.34.37-2.42.51-3.31-.73-2.59-3.93-5.16-7.87-7.78-11.79-.47-.71-.54-1.37-.43-2.19.8-5.85,1.45-11.71,1.44-17.62,0-.94,0-1.89-.25-2.8-.08-.27-.15-.61-.47-.66-.41-.07-.58.29-.67.59-.31.93-.64,1.86-.84,2.82-1.32,6.05-2.02,12.19-2.8,18.33-.2,1.53.02,2.88.59,4.28,1.46,3.61,2.85,7.24,4.25,10.87.14.36.42.71.21,1.2-.16-.04-.32-.06-.46-.13-2.95-1.52-5.88-3.07-8.84-4.57-.9-.46-1.41-1.11-1.7-2.1-1.73-5.9-3.48-11.78-5.59-17.56-.6-1.65-1.21-3.31-2.08-4.85-.21-.37-.39-.96-.92-.84-.57.13-.41.74-.38,1.15.07,1.1.17,2.2.36,3.29,1.03,6.1,2.62,12.08,4.04,18.1.65,2.78,1.44,5.36,4.07,6.93.07.04.1.12.16.19-.08.35,1.02.76-.06,1.05-2.6-.85-5.21-1.73-7.82-2.55-.74-.23-1.28-.63-1.78-1.21-3.53-4.15-7.17-8.2-11.19-11.9-.82-.75-1.65-1.48-2.62-2.02-.27-.15-.59-.4-.9-.12-.31.27-.13.62,0,.91.44,1.07,1.09,2.02,1.75,2.95,3.35,4.76,7.13,9.19,10.89,13.62.39.46.87.72,1.39.97,5.43,2.6,10.86,5.19,16.28,7.81.51.25,1.48.33.94,1.31-.45.83-.15,2.32-2.01,1.92-4.2-.91-8.44-1.65-12.67-2.43-20.02-3.71-40.11-6.94-60.3-9.53-22.33-2.86-44.76-4.21-67.28-4.14-10.9.04-21.79.31-32.6,1.85-1.9.27-3.81.62-5.61,1.3-1.3.5-1.59,1.25-1.03,2.52.4.92,1.04,1.66,1.71,2.39,1.91,2.05,4.09,3.78,6.32,5.44,7.33,5.42,15.11,10.11,23.07,14.52,12.2,6.77,24.55,13.1,38.53,15.57,8.8,1.56,17.57,3.22,26.56,2.98,4.03-.11,8-.53,11.71-2.35,3.29-1.61,6.28-3.69,9.38-5.61,4.52-2.79,9.3-4.88,14.66-5.26,8.7-.61,17.38-1.52,26.06-2.36,7.05-.69,14.1-1.42,21.15-2.15.59-.06,1.12-.16,1.29.68.73,3.48,2.2,6.68,3.98,9.73,0,.38.22.67.41.98.41.67-.2.46-.46.54-5.72-3.25-11.63-3.13-17.64-.94-4.5,1.64-8.56,4.09-12.45,6.85-8.4,5.99-15.79,13.13-23.23,20.23-8.76,8.36-16.92,17.22-23.81,27.23-14.42,20.95-26.03,43.41-36.41,66.54h0l-2.37,5.26,4.32-1.9h0c15-6.63,29.67-13.92,43.92-22.05,11.97-6.82,23.68-14.06,34.28-22.91,11.44-9.55,21.53-20.48,31.24-31.75,4.39-5.1,8.37-10.51,11.22-16.67,3.29-7.13,4.23-14.26-.2-21.33l.49-.25c3.36,2.15,6.88,3.97,10.8,4.82,1.06.23,1.22.68,1.12,1.69-1.46,13.93-2.92,27.86-4.12,41.81-.31,3.63-.4,7.27-1.46,10.81-1.41,4.65-3.86,8.78-6.6,12.71-4.01,5.73-5.69,12.03-5.6,18.97.12,8.86,1.46,17.54,3.37,26.14,1.16,5.23,2.25,10.5,4.39,15.45,6.17,14.25,13.74,27.73,22.37,40.62,2.32,3.47,4.78,6.85,7.72,9.85.94.97,1.93,1.91,3.19,2.46,1.2.51,1.97.19,2.43-1.03.29-.76.52-1.56.7-2.35,1.06-4.69,1.47-9.47,1.77-14.25,1.52-24.26.56-48.47-1.63-72.64-1.36-14.97-3.58-29.84-5.89-44.69-2.32-14.89-4.95-29.73-7.87-44.51-.35-1.78,1.01-1.5,1.81-1.96,1.04-.59,1.14.36,1.42.93,2.6,5.38,5.18,10.78,7.77,16.17.25.52.47,1.03.93,1.42,4.66,3.94,9.28,7.93,14.33,11.38.64.44,1.32.83,2.01,1.19.37.19.86.57,1.22.11.33-.42-.05-.87-.31-1.22-.7-.91-1.4-1.82-2.17-2.66-2.86-3.11-5.88-6.08-9.18-8.7-2.4-1.9-4.02-4.1-4.61-7.08-.05-1.21-.69-2.26-.96-3.41-.19-.82-.8-1.54-.55-2.45.96,1.06,1.96,2.09,2.86,3.19.6.73,1.3,1.15,2.22,1.39,5.63,1.46,11.26,2.89,16.96,4.07,2.56.53,5.12,1.12,7.76,1.17.35,0,.83.08.96-.36.13-.43-.32-.62-.62-.81-1.01-.64-2.11-1.09-3.22-1.52-6.42-2.5-13.03-4.41-19.62-6.37-.85-.25-1.43-.69-1.83-1.47-1.55-3.02-3.13-6.03-4.69-9.05-.07-.13-.07-.29-.1-.46.55-.13.93.17,1.33.33,3.97,1.53,7.94,3.07,11.91,4.63.63.25,1.24.36,1.91.28,6.46-.79,12.93-1.53,19.31-2.88,1.04-.22,2.07-.48,3.05-.92.29-.13.66-.27.57-.69-.06-.31-.39-.39-.67-.45-1.17-.26-2.36-.26-3.55-.24-5.7.06-11.36.67-17,1.43-.72.1-1.33.05-1.97-.37-4.17-2.75-8.35-5.49-12.56-8.18-.74-.48-.96-.9-.67-1.78,1.35-4.1,1.42-8.28.68-12.5-.29-1.64-.85-3.21-1.25-4.82.56-.19.89.12,1.25.27,4.12,1.67,8.36,2.64,12.83,2.2,6.01-.6,10.68-3.33,13.31-8.92.67-1.42,1.41-2.28,2.92-2.88,3.44-1.36,5.35-4.93,4.99-8.63-.38-3.85-3.28-7.14-7.07-8.07-.36-.09-.83.05-1.09-.47.26-.15.49-.31.74-.43,3.19-1.5,6.45-2.81,9.72-4.12,3.35-1.34,6.51-1.09,9.75.32,3.69,1.61,7.21,3.51,10.62,5.65.8.5,1.58.61,2.15-.24.56-.84.23-1.57-.58-2.08h-.01Z" fill="#010101" stroke-width="0"/>
  <path d="M459.25,430.12c-5.83,5.86-12.88,8.79-21.16,8.79s-15.31-2.93-21.12-8.79c-5.78-5.83-8.67-12.9-8.67-21.2s2.92-15.24,8.75-21.08c5.81-5.81,12.82-8.71,21.04-8.71s15.33,2.9,21.16,8.71c5.83,5.8,8.75,12.83,8.75,21.08s-2.92,15.34-8.75,21.2ZM419.95,390.78c-4.99,5.02-7.49,11.08-7.49,18.19s2.48,13.27,7.44,18.31c4.99,5.05,11.05,7.57,18.19,7.57s13.2-2.52,18.19-7.57c4.99-5.04,7.49-11.15,7.49-18.31s-2.5-13.17-7.49-18.19c-5.02-5.04-11.08-7.57-18.19-7.57s-13.13,2.52-18.14,7.57ZM437.52,392.44c4.07,0,7.05.39,8.95,1.18,3.39,1.41,5.09,4.18,5.09,8.31,0,2.93-1.07,5.09-3.2,6.48-1.13.73-2.71,1.26-4.74,1.59,2.56.41,4.44,1.48,5.63,3.21s1.78,3.43,1.78,5.08v2.4c0,.76.03,1.57.08,2.44s.15,1.44.29,1.71l.2.4h-5.41c-.03-.11-.06-.21-.08-.32s-.06-.23-.08-.37l-.12-1.06v-2.59c0-3.79-1.03-6.29-3.09-7.5-1.22-.7-3.36-1.06-6.43-1.06h-4.56v12.9h-5.78v-32.8h11.48,0ZM443.76,397.61c-1.46-.82-3.79-1.22-7-1.22h-4.94v11.88h5.22c2.45,0,4.28-.24,5.51-.73,2.26-.9,3.39-2.6,3.39-5.12,0-2.39-.73-3.99-2.18-4.8h0Z" fill="#010101" stroke-width="0"/>
</svg>